<svg xmlns="http://www.w3.org/2000/svg" width="159.55mm" height="95.6mm" viewBox="0 0 452.27 270.98">
  <defs>
    <style>
      .cls-1 {
        fill: #cbcaca;
      }

      .cls-2 {
        fill: #212223;
      }

      .cls-3 {
        fill: #88bf59;
      }

      .cls-4 {
        fill: #4b4b4b;
      }

      .cls-5 {
        fill: #c0e4f0;
      }

      .cls-6 {
        fill: #fff;
      }

      .cls-7 {
        fill: #ea5b0c;
      }

      .cls-8 {
        fill: #ffd53b;
      }
    </style>
  </defs>
  <g id="Layer_2" data-name="Layer 2">
    <g id="Layer_1-2" data-name="Layer 1">
      <g>
        <path class="cls-1" d="M361.82,242.28l-2.87-.39c-1.21-3-3.95-3-6.64-3l.22.14L351,237.55V238c-.16-.5.08-1.68-1.05-.57-15.16-11.66-11.74-32.63,6.62-40.66,6.57,1.19,13.4,1.06,19.75,3.42l-.18-.14a3.62,3.62,0,0,0,2.86,2.62l-.19-.17a6.22,6.22,0,0,0,4.07,3.95l-.14-.16c3.67,8.39,3,16.78,0,25.17l.09-.11-1.41,1.44.19-.21L380.1,234l.21-.21-1.53,1.44.21-.2-1.51,1.39.15-.1c-1.21,0-2.28.22-2.72,1.48l.26-.05Z"/>
        <path class="cls-1" d="M98.93,241.55l-2.87-.39c-1.21-3-4-3-6.64-3l.22.14-1.49-1.45v.42c-.17-.49.08-1.68-1.05-.57C71.94,225,75.36,204,93.71,196c6.58,1.18,13.41,1,19.76,3.41l-.18-.14a3.62,3.62,0,0,0,2.86,2.62l-.19-.16a6.21,6.21,0,0,0,4.07,3.94l-.14-.16c3.67,8.39,3,16.78,0,25.17l.09-.11L118.52,232l.2-.2-1.51,1.45.21-.21-1.53,1.44.21-.2-1.51,1.4.15-.11c-1.22,0-2.28.22-2.72,1.48l.26-.05Z"/>
        <path class="cls-2" d="M271.29.58c19.32-1.18,38.61-.43,57.85,1,8.54.65,17.1,1.69,25.39,4.21C369,10.22,379,20.09,386.93,32.26a407.06,407.06,0,0,1,38.38,75.68c.62,1.62.68,3.56,2.7,4.47,13.8,6.24,19.12,18.42,20.94,32.13,2,15.28,3.83,30.68,3.18,46.17a133.83,133.83,0,0,1-2.53,20.67c-3.15,15.73-17.67,22.28-29.35,22.7-5.07.18-7.67,1.12-10.09,6.25-17.08,36.26-65.76,40.94-88.5,8.81a3.07,3.07,0,0,1-.56-.82c-2.21-8.3-8.29-8.47-15.5-8.42-51.27.36-102.55.36-153.82.36-3.62,0-5.57,1-7.6,4.35-10.3,17.21-25.85,26.58-45.88,26.37-19.37-.21-33.18-10.74-42.63-27.2a5.44,5.44,0,0,0-4.85-3.16c-9.1-1.06-18.28.57-27.36-1.27C9.76,236.57.57,225.74.57,211.84c0-10.31-1.25-20.42,0-30.94,1.59-13.79,3.79-26.7,9.78-38.9,8-16.28,22.77-23.66,39.16-28.68,13.89-4.26,28.12-7.1,42.36-9.8a12.19,12.19,0,0,0,8.89-6.19c11.27-18.65,22.22-37.47,34.4-55.59,13.71-20.41,31.43-34,56.06-37.9A283.05,283.05,0,0,1,226.38.7C241.34.21,256.32.58,271.29.58ZM167.06,22c7.2,1.58,9.09,4.52,6.58,11.47-8.6,23.85-20.79,46-33.67,67.69-2.23,3.76-6.07,5.92-10.33,7.34-7.06,2.34-14.43,2.21-21.66,2.77-19.55,1.52-38.69,4.91-57.27,11.16a71.6,71.6,0,0,0-18.42,8.68c10.92.71,17.5,6,17,13.86C47.71,166.73,29.51,179.29,10,172.66c-1.94,5.15-2.67,10.54-3.43,16-.58,4.12.5,6.29,5.21,5.68a45.33,45.33,0,0,1,8.48,0c6.6.41,10.63,4.44,11.22,11,.76,8.43-2.93,15.1-10.53,18.9-1.45.72-3.5,1.35-3.52,2.9,0,1.71,2.15,2.28,3.61,3a7.65,7.65,0,0,0,2.77,1c8,.49,15.92,1.36,23.93,1.12,2-.07,3.07-.34,2.56-2.78-1.37-6.58-.89-13.16.09-19.79,3.22-21.64,16.06-35.16,36.1-42,19-6.44,35.57-1.39,49.43,12.83,11.41,11.7,16.6,25.87,15.14,42.08-.86,9.56-1.38,9.48,8.36,9.43q54.93-.26,109.88-.47c13.64-.05,27.3.47,40.94-.38,1.55-.1,3.6.52,2.95-2.37-1.6-7.05-1.15-14.1.14-21.12,5.88-32.09,37.42-50.57,66.71-41.34,17.1,5.39,37.56,27.05,35.26,52.9-.59,6.62-.23,6.65,6.61,5.93,10.45-1.1,17-6.16,19-15.3a116.84,116.84,0,0,0,2.34-35.14c-.1-1.15,0-2.16-1.45-2.74-9.66-3.74-13.81-11.7-15.73-21.17s-2.78-19.05-5.48-28.18c-9.57-32.4-25.05-62-43.92-89.94-7-10.3-17-16.5-29.13-19.31-13.2-3.06-26.7-3.5-40.1-3.72-37.24-.59-74.51-.64-111.65,2.86C185.89,13.5,176.36,16.05,167.06,22ZM321.23,218.69c-1.75,23.78,20.45,43.69,41.36,43.9,24.84.25,43.72-20.81,44-43.21.3-26.41-22.78-46.37-42.83-46.21C339.39,173.37,320,196.08,321.23,218.69Zm-262.7.91c0,24,17.65,43.61,39.32,43.59,24,0,44.82-20.26,44.52-43.83-.32-26-20.36-44.73-41.23-44.83C76.67,174.42,59,193.67,58.53,219.6Zm50.29-118.36c5.18.33,9.43-.51,13.71-.66,5.58-.2,9.29-2.62,12-7.36C144.84,75,154.26,56.37,163.05,37.39c.75-1.63,3-4,.12-5.64-2.44-1.39-5.33-2.21-8-.33a19.82,19.82,0,0,0-3.89,3.82C135.15,55.64,122.28,78.13,108.82,101.24Zm-88,65C31.66,166.1,40,157,40.5,145.52c.12-2.49-1.3-4-3.4-4.91-7.4-3.3-15-.88-19.22,6.09a43.33,43.33,0,0,0-4.22,10.41C11.67,164.07,13.45,166.26,20.83,166.27Zm408.75-40.6c2.25,12.62.79,26.49,11.95,36.1C441,148.58,440.42,135.39,429.58,125.67ZM14.21,202.26c-8.17.41-8.49-1.65-6.72,8.1a27.72,27.72,0,0,0,2.15,6c.7,1.59,1.95,2,3.64,1.89a10.38,10.38,0,0,0,9.65-10.61C22.7,202.64,22,202.18,14.21,202.26Z"/>
        <path class="cls-3" d="M167.06,22c9.3-5.93,18.83-8.48,28.72-9.41,37.14-3.5,74.41-3.45,111.65-2.86,13.4.22,26.9.66,40.1,3.72,12.14,2.81,22.16,9,29.13,19.31,18.87,27.89,34.35,57.54,43.92,89.94,2.7,9.13,3.58,18.8,5.48,28.18s6.07,17.43,15.73,21.17c1.48.58,1.35,1.59,1.45,2.74a116.84,116.84,0,0,1-2.34,35.14c-1.95,9.14-8.53,14.2-19,15.3-6.84.72-7.2.69-6.61-5.93,2.3-25.85-18.16-47.51-35.26-52.9-29.29-9.23-60.83,9.25-66.71,41.34-1.29,7-1.74,14.07-.14,21.12.65,2.89-1.4,2.27-2.95,2.37-13.64.85-27.3.33-40.94.38q-54.94.19-109.88.47c-9.74.05-9.22.13-8.36-9.43,1.46-16.21-3.73-30.38-15.14-42.08-13.86-14.22-30.44-19.27-49.43-12.83-20,6.8-32.88,20.32-36.1,42-1,6.63-1.46,13.21-.09,19.79.51,2.44-.52,2.71-2.56,2.78-8,.24-16-.63-23.93-1.12a7.65,7.65,0,0,1-2.77-1c-1.46-.74-3.63-1.31-3.61-3,0-1.55,2.07-2.18,3.52-2.9,7.6-3.8,11.29-10.47,10.53-18.9-.59-6.58-4.62-10.61-11.22-11a45.33,45.33,0,0,0-8.48,0c-4.71.61-5.79-1.56-5.21-5.68.76-5.41,1.49-10.8,3.43-16,19.5,6.63,37.7-5.93,39.23-27.71.55-7.86-6-13.15-17-13.86a71.6,71.6,0,0,1,18.42-8.68c18.58-6.25,37.72-9.64,57.27-11.16,7.23-.56,14.6-.43,21.66-2.77,4.26-1.42,8.1-3.58,10.33-7.34C152.85,79.41,165,57.3,173.64,33.45,176.15,26.5,174.26,23.56,167.06,22Zm110.3,40.89c.2-7-.37-17.34-.94-27.65-.42-7.51-5.41-12.68-13-12.72-18.65-.1-37.3-.14-56,0A22.75,22.75,0,0,0,189,31.76c-4.61,5.93-7.94,12.59-11.29,19.23C169.79,66.73,164.44,83.81,153,97.7c-1.21,1.47-1.78,3.51-2.5,5.35-2.31,5.88-.46,10.62,4.06,14.66,7.66,6.83,17.67,6.21,26.78-2.2a14.17,14.17,0,0,1,9.78-4c24.46-.63,48.88-2.42,73.36-2.19,9.83.09,12.83-2.88,12.9-12.69C277.41,86.46,277.36,76.3,277.36,62.87Zm8.91,1.71h0q0,17,0,33.94c0,8.76,2.08,10.82,10.78,10.71,21.63-.28,43.27-.54,64.9-.89a45.58,45.58,0,0,0,7.9-.86c8-1.56,11.7-6.46,10.66-14.59-2.35-18.37-10.33-34.63-19.55-50.37-5.44-9.3-13.87-14.39-24-17-15.49-4-31.31-3.19-47.08-3.05-3.22,0-3.63,2.06-3.62,4.7C286.3,39.62,286.27,52.1,286.27,64.58Zm-34.83,61.76v0c-3.49,0-7,0-10.47,0-2.67,0-4.46,1.26-4.59,4.1s1.28,4.88,4.31,4.94q10.71.19,21.42,0c3,0,4.45-1.94,4.35-4.9s-1.9-4.08-4.56-4.13C258.42,126.29,254.93,126.34,251.44,126.34Z"/>
        <path class="cls-4" d="M321.23,218.69c-1.27-22.61,18.16-45.32,42.49-45.52,20-.16,43.13,19.8,42.83,46.21-.24,22.4-19.12,43.46-44,43.21C341.68,262.38,319.48,242.47,321.23,218.69Zm42.35-26.42c-12.27-.93-26.92,10.37-27,26.3a26.33,26.33,0,1,0,52.66.34C389.34,204.08,378,192.32,363.58,192.27Z"/>
        <path class="cls-4" d="M58.53,219.6c.45-25.93,18.14-45.18,42.61-45.07,20.87.1,40.91,18.86,41.23,44.83.3,23.57-20.56,43.8-44.52,43.83C76.18,263.21,58.51,243.62,58.53,219.6Zm42.36-26.38c-13.76-1.5-25.72,14.2-25.42,26.45.35,13.8,9.42,26.84,24.13,26.21,13.2-.58,25.56-10.13,25.52-26.65C125.09,203.9,114.31,192.65,100.89,193.22Z"/>
        <path class="cls-5" d="M108.82,101.24c13.46-23.11,26.33-45.6,42.48-66a19.82,19.82,0,0,1,3.89-3.82c2.65-1.88,5.54-1.06,8,.33,2.89,1.63.63,4-.12,5.64-8.79,19-18.21,37.64-28.55,55.83-2.68,4.74-6.39,7.16-12,7.36C118.25,100.73,114,101.57,108.82,101.24Z"/>
        <path class="cls-6" d="M20.83,166.27c-7.38,0-9.16-2.2-7.17-9.16a43.33,43.33,0,0,1,4.22-10.41c4.19-7,11.82-9.39,19.22-6.09,2.1.93,3.52,2.42,3.4,4.91C40,157,31.66,166.1,20.83,166.27Z"/>
        <path class="cls-7" d="M429.58,125.67c10.84,9.72,11.39,22.91,11.95,36.1C430.37,152.16,431.83,138.29,429.58,125.67Z"/>
        <path class="cls-8" d="M14.21,202.26c7.74-.08,8.49.38,8.72,5.41a10.38,10.38,0,0,1-9.65,10.61c-1.69.1-2.94-.3-3.64-1.89a27.72,27.72,0,0,1-2.15-6C5.72,200.61,6,202.67,14.21,202.26Z"/>
        <path class="cls-2" d="M277.36,62.87c0,13.43.05,23.59,0,33.74-.07,9.81-3.07,12.78-12.9,12.69-24.48-.23-48.9,1.56-73.36,2.19a14.17,14.17,0,0,0-9.78,4c-9.11,8.41-19.12,9-26.78,2.2-4.52-4-6.37-8.78-4.06-14.66.72-1.84,1.29-3.88,2.5-5.35,11.47-13.89,16.82-31,24.76-46.71,3.35-6.64,6.68-13.3,11.29-19.23a22.75,22.75,0,0,1,18.44-9.23c18.65-.17,37.3-.13,56,0,7.6,0,12.59,5.21,13,12.72C277,45.53,277.56,55.83,277.36,62.87ZM171.85,86.21c7.75.91,12.75,4.57,13.88,11.85.63,4,2.6,4.46,6,4.35q34.68-1.12,69.38-2c7-.18,7.12,0,7.16-7.17q.12-25.22.06-50.43a50.5,50.5,0,0,0-.87-6.89c-.45-3.18-2.31-4.42-5.51-4.39-16.48.13-33,.28-49.45.14-9.36-.07-15.61,4.31-20.05,12.19C184.76,57.38,178.75,71.68,171.85,86.21Zm-5.46,28.17c6.88,0,13-5.21,13-11,0-6.08-3-9.06-9.13-9.06a13.2,13.2,0,0,0-12.91,13C157.35,111.48,161,114.37,166.39,114.38Z"/>
        <path class="cls-2" d="M286.27,64.58c0-12.48,0-25,0-37.43,0-2.64.4-4.67,3.62-4.7,15.77-.14,31.59-1,47.08,3.05,10.13,2.63,18.56,7.72,24,17,9.22,15.74,17.2,32,19.55,50.37,1,8.13-2.7,13-10.66,14.59a45.58,45.58,0,0,1-7.9.86c-21.63.35-43.27.61-64.9.89-8.7.11-10.77-2-10.78-10.71q0-17,0-33.94Zm77.88,34.59c6,.07,8.46-2.71,7.19-8.36C368,75.73,361.82,61.76,354,48.51c-4.46-7.55-11.26-12-19.63-14-12.52-3-25.26-3.37-38.05-2.88-2.42,1-1.17,3.15-1.21,4.68-.58,20.89,1,41.79-.25,62.83Z"/>
        <path class="cls-2" d="M251.44,126.34c3.49,0,7,0,10.46,0,2.66,0,4.47,1.24,4.56,4.13s-1.37,4.85-4.35,4.9q-10.71.18-21.42,0c-3-.06-4.44-2-4.31-4.94s1.92-4.06,4.59-4.1c3.49,0,7,0,10.47,0Z"/>
        <path class="cls-2" d="M363.58,192.27c14.43,0,25.76,11.81,25.68,26.64a26.33,26.33,0,1,1-52.66-.34C336.66,202.64,351.31,191.34,363.58,192.27Zm12.7,39.1,1.12-1.14-.09.11a10.29,10.29,0,0,0,3.2-6.1l-.2.07c1.76-5.08,2.3-10-2-14.19-2.59-5.05-6.08-8.94-12.12-9.65-4.68-.65-9.22-.61-13.09,2.7l.14-.14a5.35,5.35,0,0,0-3,2.21l-1,1c-.76.46-1.36,1-1.2,2l.18-.12c-.91-.16-.95.57-1.16,1.13l.13-.15c-.94.42-1,1.32-1.17,2.16l.17-.11a14.81,14.81,0,0,0,0,15.24l-.15-.09c.23.52,0,1.5,1.14,1.13l-.25-.09c-.47,1.41.72,2,1.37,2.87,1.13,3.08,4.23,3.64,6.58,5.16.47,1,1.49.83,2.33,1l-.06-.15a12.78,12.78,0,0,0,11.16,0l-.06.2a10.6,10.6,0,0,0,6.07-3.2l-.08.06c.38-.36.76-.72,1.13-1.09l-.14.15,1.14-1.15Z"/>
        <path class="cls-2" d="M100.89,193.22c13.42-.57,24.2,10.68,24.23,26,0,16.52-12.32,26.07-25.52,26.65-14.71.63-23.78-12.41-24.13-26.21C75.17,207.42,87.13,191.72,100.89,193.22Zm-10.55,41c-.1.86.54,1,1.14,1.17l-.17-.11c1.3,1.61,3.27,1.83,5.06,2.44l2.19.31c4,.36,7.43-.62,10.18-3.64l-.2.05c1.08.28,1.58-.46,2.07-1.2l-.11.09,1.15-1.12-.16.16,1.16-1.16-.15.17,1.15-1.17-.15.17,1.08-1.16-.07.08c4.5-6.71,4.51-13.68,0-20.23l.11.13c-.71-1.38-1.3-2.87-3.11-3.17l.15.13c-.11-1.34-1.21-1.66-2.18-2.11l.14.12c-4.52-3.66-9.47-5-15.07-2.75-14,6.45-16.6,23.32-5,32.68a.77.77,0,0,0,.8.47Z"/>
        <path class="cls-5" d="M171.85,86.21c6.9-14.53,12.91-28.83,20.56-42.36,4.44-7.88,10.69-12.26,20.05-12.19,16.48.14,33,0,49.45-.14,3.2,0,5.06,1.21,5.51,4.39a50.5,50.5,0,0,1,.87,6.89q.07,25.22-.06,50.43c0,7.15-.14,7-7.16,7.17q-34.69.87-69.38,2c-3.36.11-5.33-.31-6-4.35C184.6,90.78,179.6,87.12,171.85,86.21Z"/>
        <path class="cls-4" d="M166.39,114.38c-5.35,0-9-2.9-9-7.08a13.2,13.2,0,0,1,12.91-13c6.11,0,9.11,3,9.13,9.06C179.43,109.17,173.27,114.38,166.39,114.38Z"/>
        <path class="cls-5" d="M296.3,31.66c12.79-.49,25.53-.08,38.05,2.88,8.37,2,15.17,6.42,19.63,14,7.84,13.25,14,27.22,17.36,42.3,1.27,5.65-1.22,8.43-7.19,8.36-1.62-1.27-3.53-.71-5.3-.71-19,0-37.94-.18-56.9.1-4.72.07-5.82-1.42-5.76-5.9q.35-27.18-.06-54.38C296.1,36.06,298.29,33.87,296.3,31.66Z"/>
        <path class="cls-6" d="M296.3,31.66c2,2.21-.2,4.4-.17,6.62q.42,27.19.06,54.38c-.06,4.48,1,6,5.76,5.9,19-.28,37.93-.14,56.9-.1,1.77,0,3.68-.56,5.3.71H294.84c1.28-21-.33-41.94.25-62.83C295.13,34.81,293.88,32.67,296.3,31.66Z"/>
        <path class="cls-6" d="M346.09,226.27l1.14,1.13C346.1,227.77,346.32,226.79,346.09,226.27Z"/>
        <path class="cls-6" d="M375.28,232.37l1.14-1.15Z"/>
        <path class="cls-6" d="M376.28,231.37l1.12-1.14Z"/>
        <path class="cls-6" d="M374.29,233.31l1.13-1.08Z"/>
        <path class="cls-6" d="M113.5,230.4l1.08-1.16Z"/>
        <path class="cls-6" d="M112.5,231.4l1.15-1.17Z"/>
        <path class="cls-6" d="M111.49,232.39c.39-.39.78-.77,1.16-1.16C112.27,231.62,111.88,232,111.49,232.39Z"/>
        <path class="cls-6" d="M110.5,233.35l1.15-1.12Z"/>
        <path class="cls-6" d="M89.54,234.12c.86-.88.67.07.8.46A.75.75,0,0,1,89.54,234.12Z"/>
      </g>
    </g>
  </g>
</svg>
