<svg xmlns="http://www.w3.org/2000/svg" width="173.49mm" height="96.41mm" viewBox="0 0 491.78 273.27">
  <defs>
    <style>
      .cls-1 {
        fill: #212223;
      }

      .cls-2 {
        fill: #e7b454;
      }

      .cls-3 {
        fill: #4b4b4b;
      }

      .cls-4 {
        fill: #fff;
      }

      .cls-5 {
        fill: #ea5b0c;
      }

      .cls-6 {
        fill: #c0e4f0;
      }

      .cls-7 {
        fill: #cbcaca;
      }
    </style>
  </defs>
  <g id="Layer_2" data-name="Layer 2">
    <g id="Layer_1-2" data-name="Layer 1">
      <g>
        <path class="cls-1" d="M303.17.21c24.29-.78,52.9.82,81.53,1.08,17.44.15,34,3,45.75,18,4.7,6,9.59,11.9,13.3,18.54,13.08,23.43,25.71,47.11,36.05,71.9,7.47,17.9,10.24,36.88,10.86,56.11.35,10.75,2.2,21.51.2,32.32-2.51,13.51-5.86,26.48-17.31,35.63-7.56,6.05-16.28,8-25.61,7.05-6.81-.73-10.44,1.31-14,7.78-11.08,20-31.18,27.15-52.94,23.85-17.48-2.64-30.13-12.2-37.66-28.15-1.46-3.1-3.59-2.37-5.71-2.38q-79.67,0-159.33,0c-10.15,0-20.31.11-30.47,0-3.25,0-5.09.71-6.86,3.92-9.84,17.88-25.14,27.09-45.66,27.36-20.8.27-35.53-9.78-45.61-27.31-1.38-2.4-2.77-2.94-5.34-3.13-5.95-.46-11.93-.61-17.85-1.68-15-2.72-23.18-10.29-25.18-25.15-3.14-23.34-.41-46.35,6.1-68.82,4-13.74,13.82-22.54,26.83-28.06a227.86,227.86,0,0,1,49.5-14.93,12.51,12.51,0,0,0,8.79-5.68Q117.26,62,145.15,27.94C157.62,12.62,173.65,4.61,193.07,2,212-.47,230.93.51,249.87.26,266.19,0,282.5.21,303.17.21ZM26.84,133.7c5.67-1.33,11.14-.38,16.53.46,6.69,1,9.8,4.9,9.75,11.62C53,154.89,49,162.09,41.7,167.29c-8.11,5.74-17.46,7.86-27.22,7.65-3.82-.09-4.77,1.55-5.31,4.65-2,11.44-1.17,22.88.27,34.25,1,7.81,4.06,14.83,12.21,17.84,6.64,2.46,13.65,2.49,20.65,2.27,2.62-.08,2-1.83,1.69-3.1-1.83-7.65-.85-15.13,1.13-22.59C52.37,181,78.53,163.69,106,168.06c24.91,4,45.74,34.46,40.69,60.43-1.09,5.58.81,5.46,4.91,5.5,45.95.36,91.88-.7,137.83-1.05,15.31-.12,30.63,0,45.94,0,2,0,3.8.5,3.41-3-2.54-22.1,5.05-40.07,23-53.24,19.56-14.33,45.17-12.44,62.77,4.32,13.94,13.27,20.12,29.28,16.81,48.53-.2,1.19-.91,2.21,1,2.43,11,1.21,24.43.85,32.29-11.35,7.56-11.73,8.31-24.84,8.32-38.21,0-4-.44-6.91-5.19-7.77-2.17-.39-4-2.18-5.75-3.8-8.31-7.78-12.17-17.71-13.17-28.67-1.14-12.45,2.74-16.65,15.36-18.1a4.69,4.69,0,0,0,1.25-.55c-4.29-13.23-10.31-25.55-16.57-37.75-9.73-19-17.84-38.86-31.26-55.73-8.25-10.37-17.65-18.5-32.11-19.28-11-.6-21.94-.93-32.9-1.18-51.75-1.19-103.52-1-155.29-.46-23.47.24-43.15,8.43-57.55,27.12-16.9,21.93-35.46,42.63-49.59,66.62a20.46,20.46,0,0,1-15.25,10,169.67,169.67,0,0,0-27,6.34C47.05,122.8,36.21,126.69,26.84,133.7ZM95.59,177c-22.68-.69-43.16,20.52-43.41,45.53-.23,23,20.21,44.06,42.59,43.24,25.2-.93,43.94-18.48,44-44.71S115.82,176.16,95.59,177Zm252.24,44.69c-.73,24.3,16.85,44.34,42.46,44S433,246.87,433.37,222a44.13,44.13,0,0,0-43.08-45.08C367.72,176.33,346.71,198.12,347.83,221.65ZM34.58,142.08c-17.51,1.52-17.29,1.11-20.84,14.45-2.7,10.11-2.56,10.15,7.89,9.45,11.31-.75,20.82-7.95,22.92-17.18.91-4-.82-6.05-4.51-6.67A33.13,33.13,0,0,0,34.58,142.08Zm447.6,24.61c-.21-3.62-.25-6.94-.62-10.22-.74-6.54-1.66-13.07-2.5-19.6-.36-2.75-1.73-4-4.68-3.7s-6.64.39-7.26,3.78C465.17,147.55,473.29,165.15,482.18,166.69Z"/>
        <path class="cls-2" d="M26.84,133.7c9.37-7,20.21-10.9,31.17-14.43a169.67,169.67,0,0,1,27-6.34,20.46,20.46,0,0,0,15.25-10c14.13-24,32.69-44.69,49.59-66.62C164.22,17.6,183.9,9.41,207.37,9.17c51.77-.54,103.54-.73,155.29.46,11,.25,21.94.58,32.9,1.18,14.46.78,23.86,8.91,32.11,19.28C441.09,47,449.2,66.86,458.93,85.82c6.26,12.2,12.28,24.52,16.57,37.75a4.69,4.69,0,0,1-1.25.55c-12.62,1.45-16.5,5.65-15.36,18.1,1,11,4.86,20.89,13.17,28.67,1.73,1.62,3.58,3.41,5.75,3.8,4.75.86,5.19,3.76,5.19,7.77,0,13.37-.76,26.48-8.32,38.21-7.86,12.2-21.29,12.56-32.29,11.35-1.95-.22-1.24-1.24-1-2.43,3.31-19.25-2.87-35.26-16.81-48.53-17.6-16.76-43.21-18.65-62.77-4.32-18,13.17-25.57,31.14-23,53.24.39,3.45-1.42,3-3.41,3-15.31,0-30.63-.11-45.94,0-45.95.35-91.88,1.41-137.83,1.05-4.1,0-6,.08-4.91-5.5,5-26-15.78-56.45-40.69-60.43-27.43-4.37-53.59,12.93-60.84,40.2-2,7.46-3,14.94-1.13,22.59.3,1.27.93,3-1.69,3.1-7,.22-14,.19-20.65-2.27-8.15-3-11.21-10-12.21-17.84C8,202.47,7.18,191,9.17,179.59c.54-3.1,1.49-4.74,5.31-4.65,9.76.21,19.11-1.91,27.22-7.65,7.34-5.2,11.34-12.4,11.42-21.51.05-6.72-3.06-10.58-9.75-11.62C38,133.32,32.51,132.37,26.84,133.7Zm263-23.6v-.27c22.14,0,44.28.35,66.4-.11,18.09-.38,36.29.87,54.23-1.78,16.9-2.5,23.25-10.74,18.15-27.25A174.18,174.18,0,0,0,409.5,39c-6.64-10.52-16.24-15.68-28.64-15.86-58.75-.86-117.49-1.71-176.23.18-16.8.53-31.95,5.71-42.82,19.63-3.06,3.92-5.93,8-9,11.91-10.7,13.75-19.41,28.85-29.53,43-4.65,6.51-3,10.67,4.72,13.59a56.05,56.05,0,0,0,6.64,1.92c13.1,3.22,26.11,5.12,38.48-2.58,1.84-1.14,3.91-.64,5.86-.64Q234.4,110.08,289.82,110.1Zm51.36,15.06c-4.26.42-8.1-.45-11.83.79a4.55,4.55,0,0,0-3.31,5.36,4,4,0,0,0,4.39,3.77c6.46-.07,12.92,0,19.38-.05,2.81,0,4.83-1.15,5.07-4.24.27-3.38-1.84-4.81-4.76-5.13C347,125.31,343.84,125.29,341.18,125.16ZM222.41,126V126c-3.32,0-6.64,0-10,0-3.07,0-4.66,1.58-4.72,4.52A4,4,0,0,0,212,135q10.44.19,20.91,0c2.71-.06,4.1-1.84,4.12-4.6s-1.39-4.33-4.2-4.38C229.38,126,225.9,126,222.41,126Z"/>
        <path class="cls-3" d="M95.59,177c20.23-.8,43.19,17.88,43.15,44.06s-18.77,43.78-44,44.71c-22.38.82-42.82-20.27-42.59-43.24C52.43,197.48,72.91,176.27,95.59,177Zm1.18,18a26.35,26.35,0,0,0-26.61,26.51c0,14.37,11.64,26.38,25.72,26.35,14.66,0,26.8-10.58,26.88-26.2C122.83,206.44,111.54,195.65,96.77,195Z"/>
        <path class="cls-3" d="M347.83,221.65c-1.12-23.53,19.89-45.32,42.46-44.76A44.13,44.13,0,0,1,433.37,222c-.37,24.9-17.48,43.26-43.08,43.64S347.1,246,347.83,221.65ZM390.48,195c-14.51,0-26.58,11.68-26.56,26,0,16.36,11.48,26.32,26.29,26.62,15.58.3,26.05-12.29,26.47-26.21C417.11,207.24,404.56,195,390.48,195Z"/>
        <path class="cls-4" d="M34.58,142.08a33.13,33.13,0,0,1,5.46,0c3.69.62,5.42,2.68,4.51,6.67C42.45,158,32.94,165.23,21.63,166c-10.45.7-10.59.66-7.89-9.45C17.29,143.19,17.07,143.6,34.58,142.08Z"/>
        <path class="cls-5" d="M482.18,166.69c-8.89-1.54-17-19.14-15.06-29.74.62-3.39,4.21-3.51,7.26-3.78s4.32,1,4.68,3.7c.84,6.53,1.76,13.06,2.5,19.6C481.93,159.75,482,163.07,482.18,166.69Z"/>
        <path class="cls-1" d="M289.82,110.1q-55.41,0-110.83,0c-2,0-4-.5-5.86.64-12.37,7.7-25.38,5.8-38.48,2.58a56.05,56.05,0,0,1-6.64-1.92c-7.67-2.92-9.37-7.08-4.72-13.59,10.12-14.16,18.83-29.26,29.53-43,3.06-3.92,5.93-8,9-11.91,10.87-13.92,26-19.1,42.82-19.63,58.74-1.89,117.48-1,176.23-.18,12.4.18,22,5.34,28.64,15.86a174.18,174.18,0,0,1,19.1,41.73c5.1,16.51-1.25,24.75-18.15,27.25-17.94,2.65-36.14,1.4-54.23,1.78-22.12.46-44.26.11-66.4.11Zm-112.18-8.77c1.52.91,3.22.75,4.86.75q30.7,0,61.39-.07c1,0,2.38.6,3-.89a6.8,6.8,0,0,0,.66-1.86c.88-14.67,1.29-29.39,2.75-44,.67-6.65-.26-13.39,1.52-19.95.79-2.94-.16-4.25-3.72-4.24-15.31.05-30.63.09-45.9,1.22-11.82.87-22.51,4.9-30.84,13.88-8.71,9.41-15.6,20.17-22.83,30.67-1,1.52-2.53,3-2.35,5.18,3.18,0,6.18-.06,9.17,0,13.55.31,16.85,3.14,18.64,16.44C174.37,101,175.58,101.45,177.64,101.33ZM359.91,101c3.37.62,4.35-.59,3.74-4-3.66-20.52-7.27-41-10.57-61.61-.48-3-1.49-3.18-3.94-3.31-27.78-1.46-55.59-.57-83.38-.89-3.49,0-4.62,1.21-4.74,4.54-.22,6.3-.76,12.59-1.23,18.89q-1.32,17.74-2.71,35.49c-.26,2.81-.32,5.65-.84,8.41s.09,3.42,2.93,3.39Q309.54,101.32,359.91,101Zm29.57-.23c8.08-.83,16.28-.18,24.16-2.71,6.26-2,8.25-5.37,6.59-11.62A139.36,139.36,0,0,0,397.71,40,16.71,16.71,0,0,0,387,33.36c-7.38-1.39-14.88-1.2-22.36-1.21-2.42,0-2.57.85-2,3.05,1,4.16,1.6,8.44,2.29,12.68q4,24.65,8,49.29c.45,2.78,1.62,3.91,4.61,3.67C381.48,100.52,385.49,100.76,389.48,100.76Zm-223.42-.16c-1-3,.45-8-4.33-10.06-9.7-4.09-22.76.63-28.29,9.84-1.22,2-1.21,3,1.49,3.8a118,118,0,0,0,21.47,3.65C162.55,108.37,166,105.72,166.06,100.6Z"/>
        <path class="cls-1" d="M341.18,125.16c2.66.13,5.82.15,8.94.5,2.92.32,5,1.75,4.76,5.13-.24,3.09-2.26,4.23-5.07,4.24-6.46.05-12.92,0-19.38.05a4,4,0,0,1-4.39-3.77,4.55,4.55,0,0,1,3.31-5.36C333.08,124.71,336.92,125.58,341.18,125.16Z"/>
        <path class="cls-1" d="M222.41,126c3.49,0,7,0,10.46,0,2.81,0,4.23,1.53,4.2,4.38s-1.41,4.54-4.12,4.6q-10.45.22-20.91,0a4,4,0,0,1-4.31-4.45c.06-2.94,1.65-4.55,4.72-4.52,3.32,0,6.64,0,10,0Z"/>
        <path class="cls-1" d="M96.77,195c14.77.65,26.06,11.44,26,26.66-.08,15.62-12.22,26.17-26.88,26.2-14.08,0-25.69-12-25.72-26.35A26.35,26.35,0,0,1,96.77,195Zm9.48,42-.13.12,1.92-1.25c8.15-6.68,9.37-17.26,3.09-25.49a18.59,18.59,0,0,0-26.28-3.69C74.46,214.75,75,228.54,86,237c5.89,3.45,11.9,4.71,18.18,1l-.11.18C105,238,105.82,237.9,106.25,237Z"/>
        <path class="cls-1" d="M390.48,195c14.08,0,26.63,12.25,26.2,26.37-.42,13.92-10.89,26.51-26.47,26.21-14.81-.3-26.27-10.26-26.29-26.62C363.9,206.67,376,195,390.48,195Zm-.72,7.83c-10.14.08-18.9,8.87-18.71,18.78S380,240,390.28,240c10,0,18.57-8.44,18.58-18.23A19.08,19.08,0,0,0,389.76,202.82Z"/>
        <path class="cls-6" d="M257.08,90.07q1.37-17.75,2.71-35.49c.47-6.3,1-12.59,1.23-18.89.12-3.33,1.25-4.58,4.74-4.54,27.79.32,55.6-.57,83.38.89,2.45.13,3.46.35,3.94,3.31C356.38,55.92,360,76.44,363.65,97c.61,3.44-.37,4.65-3.74,4-1.77-1.39-3.84-.78-5.78-.78-30,0-60.08-.13-90.12.07-4.59,0-6.91-.92-6.17-5.93C258.05,92.93,258.2,91.34,257.08,90.07Z"/>
        <path class="cls-6" d="M177.64,101.33c-2.06.12-3.27-.32-3.61-2.86-1.79-13.3-5.09-16.13-18.64-16.44-3-.07-6,0-9.17,0-.18-2.2,1.3-3.66,2.35-5.18,7.23-10.5,14.12-21.26,22.83-30.67,8.33-9,19-13,30.84-13.88,15.27-1.13,30.59-1.17,45.9-1.22,3.56,0,4.51,1.3,3.72,4.24-1.78,6.56-.85,13.3-1.52,19.95-1.46,14.61-1.87,29.33-2.75,44a6.8,6.8,0,0,1-.66,1.86Z"/>
        <path class="cls-6" d="M389.48,100.76c-4,0-8-.24-12,.08-3,.24-4.16-.89-4.61-3.67q-3.95-24.65-8-49.29c-.69-4.24-1.25-8.52-2.29-12.68-.55-2.2-.4-3.06,2-3.05,7.48,0,15-.18,22.36,1.21A16.71,16.71,0,0,1,397.71,40a139.36,139.36,0,0,1,22.52,46.46c1.66,6.25-.33,9.62-6.59,11.62C405.76,100.58,397.56,99.93,389.48,100.76Z"/>
        <path class="cls-3" d="M166.06,100.6c-.07,5.12-3.51,7.77-9.66,7.23a118,118,0,0,1-21.47-3.65c-2.7-.76-2.71-1.78-1.49-3.8C139,91.17,152,86.45,161.73,90.54,166.51,92.55,165.06,97.58,166.06,100.6Z"/>
        <path class="cls-7" d="M257.08,90.07c1.12,1.27,1,2.86.76,4.28-.74,5,1.58,6,6.17,5.93,30-.2,60.08-.11,90.12-.07,1.94,0,4-.61,5.78.78q-50.37.41-100.74.88c-2.84,0-3.44-.73-2.93-3.39S256.82,92.88,257.08,90.07Z"/>
        <path class="cls-7" d="M177.64,101.33l69.29-.21c-.66,1.49-2,.88-3,.89q-30.69.09-61.39.07C180.86,102.08,179.16,102.24,177.64,101.33Z"/>
        <path class="cls-7" d="M86,237c-11-8.48-11.58-22.27-1.19-30.34a18.59,18.59,0,0,1,26.28,3.69c6.28,8.23,5.06,18.81-3.09,25.49-1.44-.8-1.57.38-1.92,1.25l.13-.12c-.91,0-1.84,0-2.14,1.19l.11-.18C98,239.81,92,238.46,86,237Z"/>
        <path class="cls-4" d="M86,237c6,1.44,12,2.79,18.18,1C97.94,241.73,91.93,240.47,86,237Z"/>
        <path class="cls-4" d="M106.12,237.11c.35-.87.48-2.05,1.92-1.25Z"/>
        <path class="cls-4" d="M104.11,238.18c.3-1.14,1.23-1.15,2.14-1.19C105.82,237.9,105,238,104.11,238.18Z"/>
        <path class="cls-7" d="M389.76,202.82a19.08,19.08,0,0,1,19.1,18.91c0,9.79-8.61,18.23-18.58,18.23-10.31,0-19-8.33-19.23-18.36S379.62,202.9,389.76,202.82Z"/>
      </g>
    </g>
  </g>
</svg>
