<svg xmlns="http://www.w3.org/2000/svg" xmlns:xlink="http://www.w3.org/1999/xlink" width="1080" zoomAndPan="magnify" viewBox="0 0 810 1439.999935" height="1920" preserveAspectRatio="xMidYMid meet" version="1.0"><defs><clipPath id="9d1ae0e141"><path d="M 214 115.410156 L 596 115.410156 L 596 391 L 214 391 Z M 214 115.410156 " clip-rule="nonzero"/></clipPath><clipPath id="603a46d05f"><path d="M 227 115.410156 L 587 115.410156 L 587 391 L 227 391 Z M 227 115.410156 " clip-rule="nonzero"/></clipPath><clipPath id="bf11f556ae"><path d="M 302 9 L 506 9 L 506 231 L 302 231 Z M 302 9 " clip-rule="nonzero"/></clipPath><clipPath id="677ebf227b"><path d="M 64.765625 -0.773438 L 758.042969 16.546875 L 744.378906 563.464844 L 51.105469 546.148438 Z M 64.765625 -0.773438 " clip-rule="nonzero"/></clipPath><clipPath id="9933090365"><path d="M 64.765625 -0.773438 L 758.042969 16.546875 L 744.378906 563.464844 L 51.105469 546.148438 Z M 64.765625 -0.773438 " clip-rule="nonzero"/></clipPath><clipPath id="fca2378267"><path d="M 241 118 L 350 118 L 350 241 L 241 241 Z M 241 118 " clip-rule="nonzero"/></clipPath><clipPath id="d7484c999d"><path d="M 64.765625 -0.773438 L 758.042969 16.546875 L 744.378906 563.464844 L 51.105469 546.148438 Z M 64.765625 -0.773438 " clip-rule="nonzero"/></clipPath><clipPath id="157fc13c25"><path d="M 64.765625 -0.773438 L 758.042969 16.546875 L 744.378906 563.464844 L 51.105469 546.148438 Z M 64.765625 -0.773438 " clip-rule="nonzero"/></clipPath><clipPath id="2fc84224e9"><path d="M 65 123 L 316 123 L 316 318 L 65 318 Z M 65 123 " clip-rule="nonzero"/></clipPath><clipPath id="80f79c2d72"><path d="M 64.765625 -0.773438 L 758.042969 16.546875 L 744.378906 563.464844 L 51.105469 546.148438 Z M 64.765625 -0.773438 " clip-rule="nonzero"/></clipPath><clipPath id="9a0c933be1"><path d="M 64.765625 -0.773438 L 758.042969 16.546875 L 744.378906 563.464844 L 51.105469 546.148438 Z M 64.765625 -0.773438 " clip-rule="nonzero"/></clipPath><clipPath id="7c6ebf6bb0"><path d="M 85 166 L 745 166 L 745 557 L 85 557 Z M 85 166 " clip-rule="nonzero"/></clipPath><clipPath id="3c49dd4247"><path d="M 64.765625 -0.773438 L 758.042969 16.546875 L 744.378906 563.464844 L 51.105469 546.148438 Z M 64.765625 -0.773438 " clip-rule="nonzero"/></clipPath><clipPath id="0034ce0706"><path d="M 64.765625 -0.773438 L 758.042969 16.546875 L 744.378906 563.464844 L 51.105469 546.148438 Z M 64.765625 -0.773438 " clip-rule="nonzero"/></clipPath><clipPath id="0535041cf0"><path d="M 337 28 L 444 28 L 444 125 L 337 125 Z M 337 28 " clip-rule="nonzero"/></clipPath><clipPath id="eea15f1526"><path d="M 64.765625 -0.773438 L 758.042969 16.546875 L 744.378906 563.464844 L 51.105469 546.148438 Z M 64.765625 -0.773438 " clip-rule="nonzero"/></clipPath><clipPath id="831710d61c"><path d="M 64.765625 -0.773438 L 758.042969 16.546875 L 744.378906 563.464844 L 51.105469 546.148438 Z M 64.765625 -0.773438 " clip-rule="nonzero"/></clipPath><clipPath id="dd2462be47"><path d="M 89 137 L 227 137 L 227 181 L 89 181 Z M 89 137 " clip-rule="nonzero"/></clipPath><clipPath id="2ab6bd2c47"><path d="M 64.765625 -0.773438 L 758.042969 16.546875 L 744.378906 563.464844 L 51.105469 546.148438 Z M 64.765625 -0.773438 " clip-rule="nonzero"/></clipPath><clipPath id="889944e4d0"><path d="M 64.765625 -0.773438 L 758.042969 16.546875 L 744.378906 563.464844 L 51.105469 546.148438 Z M 64.765625 -0.773438 " clip-rule="nonzero"/></clipPath><clipPath id="36682cb34a"><rect x="0" width="810" y="0" height="1225"/></clipPath></defs><g transform="matrix(1, 0, 0, 1, 0, 215)"><g clip-path="url(#36682cb34a)"><g clip-path="url(#9d1ae0e141)"><path fill="#f2f2f2" d="M 595.011719 252.917969 C 595.011719 255.167969 594.933594 257.417969 594.78125 259.667969 C 594.628906 261.914062 594.398438 264.160156 594.09375 266.398438 C 593.789062 268.640625 593.40625 270.875 592.949219 273.101562 C 592.492188 275.328125 591.960938 277.546875 591.351562 279.753906 C 590.742188 281.960938 590.0625 284.15625 589.304688 286.34375 C 588.546875 288.527344 587.714844 290.695312 586.808594 292.847656 C 585.90625 295.003906 584.929688 297.140625 583.878906 299.261719 C 582.828125 301.378906 581.707031 303.480469 580.511719 305.558594 C 579.320312 307.640625 578.058594 309.699219 576.726562 311.734375 C 575.390625 313.769531 573.992188 315.777344 572.523438 317.761719 C 571.050781 319.75 569.515625 321.707031 567.914062 323.636719 C 566.3125 325.570312 564.644531 327.472656 562.914062 329.34375 C 561.179688 331.214844 559.386719 333.054688 557.53125 334.863281 C 555.671875 336.671875 553.753906 338.445312 551.777344 340.1875 C 549.800781 341.925781 547.765625 343.628906 545.671875 345.296875 C 543.578125 346.964844 541.429688 348.597656 539.226562 350.1875 C 537.023438 351.78125 534.765625 353.332031 532.457031 354.84375 C 530.144531 356.355469 527.785156 357.824219 525.375 359.253906 C 522.96875 360.683594 520.511719 362.066406 518.007812 363.410156 C 515.503906 364.75 512.957031 366.046875 510.363281 367.296875 C 507.773438 368.546875 505.140625 369.75 502.464844 370.910156 C 499.792969 372.066406 497.082031 373.175781 494.332031 374.238281 C 491.582031 375.296875 488.800781 376.308594 485.980469 377.273438 C 483.164062 378.234375 480.316406 379.148438 477.433594 380.007812 C 474.554688 380.871094 471.648438 381.679688 468.710938 382.4375 C 465.777344 383.195312 462.820312 383.902344 459.835938 384.554688 C 456.851562 385.210938 453.851562 385.808594 450.828125 386.355469 C 447.804688 386.902344 444.761719 387.398438 441.707031 387.835938 C 438.648438 388.277344 435.578125 388.660156 432.496094 388.992188 C 429.410156 389.320312 426.320312 389.597656 423.214844 389.816406 C 420.113281 390.039062 417.007812 390.203125 413.894531 390.3125 C 410.78125 390.425781 407.664062 390.480469 404.546875 390.480469 C 401.429688 390.480469 398.316406 390.425781 395.203125 390.3125 C 392.089844 390.203125 388.980469 390.039062 385.878906 389.816406 C 382.777344 389.597656 379.683594 389.320312 376.601562 388.992188 C 373.515625 388.660156 370.445312 388.277344 367.390625 387.835938 C 364.332031 387.398438 361.292969 386.902344 358.269531 386.355469 C 355.246094 385.808594 352.242188 385.210938 349.257812 384.554688 C 346.277344 383.902344 343.316406 383.195312 340.382812 382.4375 C 337.449219 381.679688 334.539062 380.871094 331.660156 380.007812 C 328.78125 379.148438 325.929688 378.234375 323.113281 377.273438 C 320.296875 376.308594 317.511719 375.296875 314.761719 374.238281 C 312.015625 373.175781 309.304688 372.066406 306.628906 370.910156 C 303.957031 369.75 301.324219 368.546875 298.730469 367.296875 C 296.140625 366.046875 293.59375 364.75 291.089844 363.410156 C 288.585938 362.066406 286.128906 360.683594 283.71875 359.253906 C 281.308594 357.824219 278.949219 356.355469 276.640625 354.84375 C 274.332031 353.332031 272.074219 351.78125 269.867188 350.1875 C 267.664062 348.597656 265.515625 346.964844 263.421875 345.296875 C 261.328125 343.628906 259.292969 341.925781 257.316406 340.1875 C 255.339844 338.445312 253.421875 336.671875 251.566406 334.863281 C 249.707031 333.054688 247.914062 331.214844 246.183594 329.34375 C 244.449219 327.472656 242.785156 325.570312 241.179688 323.636719 C 239.578125 321.707031 238.042969 319.75 236.574219 317.761719 C 235.105469 315.777344 233.703125 313.769531 232.371094 311.734375 C 231.039062 309.699219 229.773438 307.640625 228.582031 305.558594 C 227.390625 303.480469 226.265625 301.378906 225.21875 299.261719 C 224.167969 297.140625 223.191406 295.003906 222.285156 292.847656 C 221.378906 290.695312 220.550781 288.527344 219.792969 286.34375 C 219.035156 284.15625 218.351562 281.960938 217.742188 279.753906 C 217.136719 277.546875 216.601562 275.328125 216.144531 273.101562 C 215.6875 270.875 215.304688 268.640625 215 266.398438 C 214.695312 264.160156 214.464844 261.914062 214.3125 259.667969 C 214.160156 257.417969 214.082031 255.167969 214.082031 252.917969 C 214.082031 250.664062 214.160156 248.414062 214.3125 246.167969 C 214.464844 243.917969 214.695312 241.671875 215 239.433594 C 215.304688 237.191406 215.6875 234.960938 216.144531 232.730469 C 216.601562 230.503906 217.136719 228.289062 217.742188 226.078125 C 218.351562 223.871094 219.035156 221.675781 219.792969 219.492188 C 220.550781 217.308594 221.378906 215.140625 222.285156 212.984375 C 223.191406 210.828125 224.167969 208.691406 225.21875 206.574219 C 226.265625 204.453125 227.390625 202.355469 228.582031 200.273438 C 229.773438 198.195312 231.039062 196.136719 232.371094 194.101562 C 233.703125 192.066406 235.105469 190.054688 236.574219 188.070312 C 238.042969 186.085938 239.578125 184.125 241.179688 182.195312 C 242.785156 180.265625 244.449219 178.363281 246.183594 176.492188 C 247.914062 174.617188 249.707031 172.777344 251.566406 170.96875 C 253.421875 169.164062 255.339844 167.386719 257.316406 165.648438 C 259.292969 163.90625 261.328125 162.203125 263.421875 160.535156 C 265.515625 158.867188 267.664062 157.238281 269.871094 155.644531 C 272.074219 154.054688 274.332031 152.5 276.640625 150.988281 C 278.949219 149.476562 281.308594 148.007812 283.71875 146.578125 C 286.128906 145.152344 288.585938 143.765625 291.089844 142.425781 C 293.59375 141.085938 296.140625 139.789062 298.730469 138.539062 C 301.324219 137.285156 303.957031 136.082031 306.628906 134.925781 C 309.304688 133.769531 312.015625 132.660156 314.761719 131.597656 C 317.511719 130.535156 320.296875 129.523438 323.113281 128.5625 C 325.929688 127.597656 328.78125 126.6875 331.660156 125.824219 C 334.539062 124.964844 337.449219 124.152344 340.382812 123.394531 C 343.316406 122.636719 346.277344 121.929688 349.257812 121.277344 C 352.242188 120.625 355.246094 120.023438 358.269531 119.476562 C 361.292969 118.929688 364.332031 118.4375 367.390625 117.996094 C 370.445312 117.558594 373.515625 117.171875 376.601562 116.84375 C 379.683594 116.511719 382.777344 116.238281 385.878906 116.015625 C 388.980469 115.796875 392.089844 115.628906 395.203125 115.519531 C 398.316406 115.410156 401.429688 115.355469 404.546875 115.355469 C 407.664062 115.355469 410.78125 115.410156 413.894531 115.519531 C 417.007812 115.628906 420.113281 115.796875 423.214844 116.015625 C 426.320312 116.238281 429.410156 116.511719 432.496094 116.84375 C 435.578125 117.171875 438.648438 117.558594 441.707031 117.996094 C 444.761719 118.4375 447.804688 118.929688 450.828125 119.476562 C 453.851562 120.023438 456.851562 120.625 459.835938 121.277344 C 462.820312 121.929688 465.777344 122.636719 468.710938 123.394531 C 471.648438 124.152344 474.554688 124.964844 477.433594 125.824219 C 480.316406 126.6875 483.164062 127.597656 485.980469 128.5625 C 488.800781 129.523438 491.582031 130.535156 494.332031 131.597656 C 497.082031 132.660156 499.792969 133.769531 502.464844 134.925781 C 505.140625 136.082031 507.773438 137.285156 510.363281 138.539062 C 512.957031 139.789062 515.503906 141.085938 518.007812 142.425781 C 520.511719 143.765625 522.96875 145.152344 525.375 146.578125 C 527.785156 148.007812 530.144531 149.476562 532.457031 150.988281 C 534.765625 152.5 537.023438 154.054688 539.226562 155.644531 C 541.429688 157.238281 543.578125 158.867188 545.671875 160.535156 C 547.765625 162.203125 549.800781 163.90625 551.777344 165.648438 C 553.753906 167.386719 555.671875 169.164062 557.53125 170.96875 C 559.386719 172.777344 561.179688 174.617188 562.914062 176.492188 C 564.644531 178.363281 566.3125 180.265625 567.914062 182.195312 C 569.515625 184.125 571.050781 186.085938 572.523438 188.070312 C 573.992188 190.054688 575.390625 192.066406 576.726562 194.101562 C 578.058594 196.136719 579.320312 198.195312 580.511719 200.273438 C 581.707031 202.355469 582.828125 204.453125 583.878906 206.574219 C 584.929688 208.691406 585.90625 210.828125 586.808594 212.984375 C 587.714844 215.140625 588.546875 217.308594 589.304688 219.492188 C 590.0625 221.675781 590.742188 223.871094 591.351562 226.078125 C 591.960938 228.289062 592.492188 230.503906 592.949219 232.730469 C 593.40625 234.960938 593.789062 237.191406 594.09375 239.433594 C 594.398438 241.671875 594.628906 243.917969 594.78125 246.167969 C 594.933594 248.414062 595.011719 250.664062 595.011719 252.917969 Z M 595.011719 252.917969 " fill-opacity="1" fill-rule="evenodd"/></g><g clip-path="url(#603a46d05f)"><path fill="#e6e6e6" d="M 405.230469 115.355469 C 406.851562 115.355469 408.46875 115.375 410.082031 115.402344 C 408.464844 115.371094 406.847656 115.355469 405.230469 115.355469 Z M 410.707031 115.417969 C 412.066406 115.445312 413.417969 115.480469 414.773438 115.527344 C 413.417969 115.480469 412.0625 115.445312 410.707031 115.417969 Z M 416.375 115.601562 C 417.316406 115.636719 418.261719 115.675781 419.199219 115.726562 C 418.257812 115.679688 417.316406 115.636719 416.375 115.601562 Z M 391.980469 115.691406 C 391.800781 115.699219 391.621094 115.707031 391.445312 115.714844 C 391.621094 115.703125 391.800781 115.699219 391.980469 115.691406 Z M 408.996094 238.230469 C 343.773438 238.507812 279.5625 260.414062 227.679688 302.5625 C 229.398438 305.773438 231.285156 308.933594 233.332031 312.046875 C 235.382812 315.15625 237.589844 318.203125 239.957031 321.195312 C 242.324219 324.183594 244.84375 327.105469 247.515625 329.960938 C 250.183594 332.8125 253 335.589844 255.957031 338.292969 C 258.917969 340.992188 262.011719 343.609375 265.246094 346.140625 C 268.476562 348.675781 271.835938 351.117188 275.320312 353.464844 C 278.804688 355.816406 282.40625 358.070312 286.128906 360.226562 C 289.847656 362.378906 293.671875 364.429688 297.605469 366.378906 C 301.539062 368.324219 305.566406 370.164062 309.691406 371.894531 C 313.816406 373.621094 318.023438 375.238281 322.316406 376.738281 C 326.609375 378.238281 330.972656 379.621094 335.410156 380.886719 C 339.84375 382.148438 344.339844 383.292969 348.894531 384.3125 C 353.449219 385.332031 358.050781 386.226562 362.699219 386.996094 C 367.34375 387.769531 372.027344 388.410156 376.742188 388.929688 C 381.457031 389.445312 386.191406 389.832031 390.945312 390.09375 C 395.699219 390.351562 400.460938 390.484375 405.230469 390.484375 C 410.207031 390.484375 415.175781 390.34375 420.136719 390.0625 C 425.09375 389.78125 430.03125 389.359375 434.949219 388.796875 C 439.863281 388.238281 444.738281 387.539062 449.578125 386.703125 C 454.417969 385.863281 459.203125 384.890625 463.9375 383.785156 C 468.671875 382.675781 473.335938 381.4375 477.933594 380.0625 C 482.535156 378.691406 487.050781 377.191406 491.488281 375.566406 C 495.921875 373.9375 500.265625 372.1875 504.511719 370.3125 C 508.757812 368.4375 512.894531 366.449219 516.925781 364.339844 C 520.953125 362.234375 524.863281 360.015625 528.652344 357.6875 C 532.445312 355.355469 536.101562 352.925781 539.625 350.386719 C 543.152344 347.851562 546.535156 345.222656 549.773438 342.492188 C 553.015625 339.765625 556.101562 336.949219 559.035156 334.046875 C 561.96875 331.148438 564.742188 328.164062 567.355469 325.105469 C 569.964844 322.046875 572.40625 318.917969 574.679688 315.722656 C 576.949219 312.523438 579.042969 309.269531 580.960938 305.953125 C 582.878906 302.636719 584.617188 299.269531 586.167969 295.855469 C 532.472656 256.800781 470.289062 237.96875 408.996094 238.230469 Z M 408.996094 238.230469 " fill-opacity="1" fill-rule="evenodd"/></g><path fill="#fcc2ac" d="M 645.101562 707.054688 C 645.101562 708.472656 645.128906 709.890625 645.183594 711.308594 C 645.234375 712.722656 645.3125 714.136719 645.417969 715.550781 C 645.523438 716.960938 645.652344 718.371094 645.8125 719.773438 C 645.96875 721.175781 646.152344 722.574219 646.359375 723.964844 C 646.570312 725.355469 646.804688 726.738281 647.0625 728.113281 C 647.324219 729.492188 647.609375 730.859375 647.917969 732.214844 C 648.230469 733.574219 648.566406 734.917969 648.925781 736.253906 C 649.289062 737.589844 649.671875 738.914062 650.082031 740.222656 C 650.492188 741.535156 650.925781 742.832031 651.382812 744.113281 C 651.839844 745.394531 652.324219 746.664062 652.828125 747.914062 C 653.332031 749.164062 653.859375 750.398438 654.410156 751.617188 C 654.960938 752.832031 655.53125 754.03125 656.128906 755.210938 C 656.722656 756.390625 657.339844 757.546875 657.976562 758.6875 C 658.613281 759.828125 659.273438 760.945312 659.953125 762.042969 C 660.628906 763.136719 661.328125 764.210938 662.046875 765.261719 C 662.765625 766.316406 663.503906 767.339844 664.261719 768.34375 C 665.019531 769.347656 665.792969 770.324219 666.585938 771.277344 C 667.382812 772.230469 668.191406 773.15625 669.019531 774.058594 C 669.847656 774.957031 670.691406 775.828125 671.550781 776.675781 C 672.410156 777.519531 673.285156 778.335938 674.175781 779.125 C 675.066406 779.914062 675.96875 780.671875 676.886719 781.398438 C 677.804688 782.128906 678.738281 782.828125 679.679688 783.496094 C 680.625 784.164062 681.582031 784.804688 682.550781 785.410156 C 683.515625 786.015625 684.496094 786.589844 685.484375 787.132812 C 686.472656 787.675781 687.472656 788.1875 688.480469 788.664062 C 689.488281 789.144531 690.503906 789.589844 691.527344 790 C 692.554688 790.410156 693.585938 790.789062 694.625 791.132812 C 695.660156 791.480469 696.707031 791.789062 697.757812 792.066406 C 698.804688 792.34375 699.859375 792.585938 700.917969 792.792969 C 701.980469 793.003906 703.039062 793.175781 704.105469 793.316406 C 705.171875 793.453125 706.238281 793.558594 707.308594 793.628906 C 708.378906 793.695312 709.449219 793.730469 710.519531 793.730469 C 711.589844 793.730469 712.660156 793.695312 713.726562 793.628906 C 714.796875 793.558594 715.863281 793.453125 716.929688 793.316406 C 717.996094 793.175781 719.058594 793.003906 720.117188 792.792969 C 721.175781 792.585938 722.230469 792.34375 723.28125 792.066406 C 724.328125 791.789062 725.375 791.480469 726.414062 791.132812 C 727.453125 790.789062 728.484375 790.410156 729.507812 790 C 730.53125 789.589844 731.546875 789.144531 732.554688 788.664062 C 733.5625 788.1875 734.5625 787.675781 735.550781 787.132812 C 736.539062 786.589844 737.519531 786.015625 738.488281 785.410156 C 739.453125 784.804688 740.410156 784.164062 741.355469 783.496094 C 742.296875 782.828125 743.230469 782.128906 744.148438 781.398438 C 745.066406 780.671875 745.972656 779.914062 746.859375 779.125 C 747.75 778.335938 748.625 777.519531 749.484375 776.675781 C 750.347656 775.828125 751.191406 774.957031 752.015625 774.058594 C 752.84375 773.15625 753.65625 772.230469 754.449219 771.277344 C 755.242188 770.324219 756.015625 769.347656 756.773438 768.34375 C 757.53125 767.339844 758.269531 766.316406 758.988281 765.261719 C 759.707031 764.210938 760.40625 763.136719 761.085938 762.042969 C 761.765625 760.945312 762.421875 759.828125 763.058594 758.6875 C 763.699219 757.546875 764.3125 756.390625 764.910156 755.210938 C 765.503906 754.03125 766.078125 752.832031 766.625 751.617188 C 767.175781 750.398438 767.703125 749.164062 768.210938 747.914062 C 768.714844 746.664062 769.195312 745.394531 769.652344 744.113281 C 770.109375 742.832031 770.542969 741.535156 770.953125 740.222656 C 771.363281 738.914062 771.75 737.589844 772.109375 736.253906 C 772.46875 734.917969 772.804688 733.574219 773.117188 732.214844 C 773.425781 730.859375 773.710938 729.492188 773.972656 728.113281 C 774.234375 726.738281 774.46875 725.355469 774.675781 723.964844 C 774.886719 722.574219 775.066406 721.175781 775.226562 719.773438 C 775.382812 718.371094 775.511719 716.960938 775.617188 715.550781 C 775.722656 714.136719 775.800781 712.722656 775.855469 711.308594 C 775.90625 709.890625 775.933594 708.472656 775.933594 707.054688 C 775.933594 705.636719 775.90625 704.21875 775.855469 702.800781 C 775.800781 701.382812 775.722656 699.96875 775.617188 698.558594 C 775.511719 697.148438 775.382812 695.738281 775.226562 694.335938 C 775.066406 692.933594 774.886719 691.535156 774.675781 690.144531 C 774.46875 688.753906 774.234375 687.371094 773.972656 685.992188 C 773.714844 684.617188 773.425781 683.25 773.117188 681.894531 C 772.804688 680.535156 772.46875 679.1875 772.109375 677.851562 C 771.75 676.519531 771.363281 675.195312 770.953125 673.882812 C 770.542969 672.574219 770.109375 671.277344 769.652344 669.996094 C 769.195312 668.710938 768.714844 667.445312 768.210938 666.195312 C 767.703125 664.945312 767.175781 663.710938 766.625 662.492188 C 766.078125 661.277344 765.503906 660.078125 764.910156 658.898438 C 764.3125 657.71875 763.699219 656.558594 763.058594 655.421875 C 762.421875 654.28125 761.765625 653.164062 761.085938 652.066406 C 760.40625 650.96875 759.707031 649.894531 758.988281 648.84375 C 758.269531 647.792969 757.53125 646.765625 756.773438 645.765625 C 756.015625 644.761719 755.242188 643.78125 754.449219 642.832031 C 753.65625 641.878906 752.84375 640.953125 752.015625 640.050781 C 751.191406 639.152344 750.347656 638.277344 749.484375 637.433594 C 748.625 636.589844 747.75 635.773438 746.859375 634.984375 C 745.972656 634.195312 745.066406 633.4375 744.148438 632.707031 C 743.230469 631.980469 742.296875 631.28125 741.355469 630.609375 C 740.410156 629.941406 739.453125 629.304688 738.488281 628.699219 C 737.519531 628.09375 736.539062 627.515625 735.550781 626.972656 C 734.5625 626.429688 733.5625 625.921875 732.554688 625.441406 C 731.546875 624.964844 730.53125 624.519531 729.507812 624.109375 C 728.484375 623.695312 727.453125 623.320312 726.414062 622.972656 C 725.375 622.628906 724.328125 622.320312 723.28125 622.042969 C 722.230469 621.765625 721.175781 621.523438 720.117188 621.316406 C 719.058594 621.105469 717.996094 620.933594 716.929688 620.792969 C 715.863281 620.65625 714.796875 620.550781 713.726562 620.480469 C 712.660156 620.410156 711.589844 620.375 710.519531 620.375 C 709.449219 620.375 708.378906 620.410156 707.308594 620.480469 C 706.238281 620.550781 705.171875 620.65625 704.105469 620.792969 C 703.042969 620.933594 701.980469 621.105469 700.917969 621.316406 C 699.859375 621.523438 698.804688 621.765625 697.757812 622.042969 C 696.707031 622.320312 695.660156 622.628906 694.625 622.972656 C 693.585938 623.320312 692.554688 623.695312 691.527344 624.109375 C 690.503906 624.519531 689.488281 624.964844 688.480469 625.445312 C 687.472656 625.921875 686.472656 626.433594 685.484375 626.972656 C 684.496094 627.515625 683.515625 628.09375 682.550781 628.699219 C 681.582031 629.304688 680.625 629.941406 679.679688 630.613281 C 678.738281 631.28125 677.804688 631.980469 676.886719 632.707031 C 675.96875 633.4375 675.066406 634.195312 674.175781 634.984375 C 673.285156 635.773438 672.410156 636.589844 671.550781 637.433594 C 670.691406 638.277344 669.847656 639.152344 669.019531 640.050781 C 668.191406 640.953125 667.382812 641.878906 666.589844 642.832031 C 665.792969 643.78125 665.019531 644.761719 664.261719 645.765625 C 663.503906 646.765625 662.769531 647.792969 662.046875 648.84375 C 661.328125 649.894531 660.628906 650.96875 659.953125 652.066406 C 659.273438 653.164062 658.613281 654.28125 657.976562 655.421875 C 657.339844 656.558594 656.722656 657.71875 656.128906 658.898438 C 655.53125 660.078125 654.960938 661.277344 654.410156 662.492188 C 653.859375 663.710938 653.332031 664.945312 652.828125 666.195312 C 652.324219 667.445312 651.839844 668.710938 651.382812 669.996094 C 650.925781 671.277344 650.492188 672.574219 650.082031 673.882812 C 649.671875 675.195312 649.289062 676.519531 648.925781 677.855469 C 648.566406 679.1875 648.230469 680.535156 647.917969 681.894531 C 647.609375 683.25 647.324219 684.617188 647.0625 685.992188 C 646.804688 687.371094 646.570312 688.753906 646.359375 690.144531 C 646.152344 691.535156 645.96875 692.933594 645.8125 694.335938 C 645.652344 695.738281 645.523438 697.148438 645.417969 698.558594 C 645.3125 699.96875 645.234375 701.382812 645.183594 702.800781 C 645.128906 704.21875 645.101562 705.636719 645.101562 707.054688 Z M 645.101562 707.054688 " fill-opacity="1" fill-rule="evenodd"/><path fill="#f3b493" d="M 733.414062 672.765625 L 729.949219 675.851562 C 744.390625 692.117188 747.390625 704.035156 745.34375 714.160156 C 743.300781 724.285156 735.820312 733.074219 728.003906 742.132812 L 731.511719 745.167969 C 739.324219 736.113281 747.519531 726.808594 749.890625 715.078125 C 752.257812 703.347656 748.402344 689.652344 733.414062 672.765625 Z M 733.414062 672.765625 " fill-opacity="1" fill-rule="nonzero"/><path fill="#fcc2ac" d="M 166.03125 707.054688 C 166.03125 708.472656 166.007812 709.890625 165.953125 711.308594 C 165.902344 712.722656 165.824219 714.136719 165.71875 715.550781 C 165.613281 716.960938 165.480469 718.371094 165.324219 719.773438 C 165.167969 721.175781 164.984375 722.574219 164.777344 723.964844 C 164.566406 725.355469 164.332031 726.738281 164.070312 728.113281 C 163.8125 729.492188 163.527344 730.859375 163.214844 732.214844 C 162.90625 733.574219 162.570312 734.917969 162.207031 736.253906 C 161.847656 737.589844 161.460938 738.914062 161.054688 740.222656 C 160.644531 741.535156 160.210938 742.832031 159.753906 744.113281 C 159.292969 745.394531 158.8125 746.664062 158.308594 747.914062 C 157.804688 749.164062 157.277344 750.398438 156.726562 751.617188 C 156.175781 752.832031 155.601562 754.03125 155.007812 755.210938 C 154.414062 756.390625 153.796875 757.546875 153.160156 758.6875 C 152.523438 759.828125 151.863281 760.945312 151.183594 762.042969 C 150.503906 763.136719 149.804688 764.210938 149.085938 765.261719 C 148.367188 766.316406 147.628906 767.339844 146.871094 768.34375 C 146.117188 769.347656 145.339844 770.324219 144.546875 771.277344 C 143.753906 772.230469 142.945312 773.15625 142.117188 774.058594 C 141.289062 774.957031 140.445312 775.828125 139.585938 776.675781 C 138.726562 777.519531 137.851562 778.335938 136.960938 779.125 C 136.070312 779.914062 135.164062 780.671875 134.246094 781.398438 C 133.328125 782.128906 132.398438 782.828125 131.453125 783.496094 C 130.507812 784.164062 129.554688 784.804688 128.585938 785.410156 C 127.617188 786.015625 126.640625 786.589844 125.652344 787.132812 C 124.660156 787.675781 123.664062 788.1875 122.65625 788.664062 C 121.648438 789.144531 120.632812 789.589844 119.605469 790 C 118.582031 790.410156 117.550781 790.789062 116.511719 791.132812 C 115.472656 791.480469 114.429688 791.789062 113.378906 792.066406 C 112.328125 792.34375 111.273438 792.585938 110.214844 792.792969 C 109.15625 793.003906 108.09375 793.175781 107.027344 793.316406 C 105.964844 793.453125 104.894531 793.558594 103.828125 793.628906 C 102.757812 793.695312 101.6875 793.730469 100.617188 793.730469 C 99.546875 793.730469 98.476562 793.695312 97.40625 793.628906 C 96.339844 793.558594 95.269531 793.453125 94.207031 793.316406 C 93.140625 793.175781 92.078125 793.003906 91.019531 792.792969 C 89.960938 792.585938 88.90625 792.34375 87.855469 792.066406 C 86.804688 791.789062 85.761719 791.480469 84.722656 791.132812 C 83.683594 790.789062 82.652344 790.410156 81.628906 790 C 80.605469 789.589844 79.585938 789.144531 78.578125 788.664062 C 77.570312 788.1875 76.574219 787.675781 75.585938 787.132812 C 74.59375 786.589844 73.617188 786.015625 72.648438 785.410156 C 71.679688 784.804688 70.726562 784.164062 69.78125 783.496094 C 68.835938 782.828125 67.90625 782.128906 66.988281 781.398438 C 66.070312 780.671875 65.164062 779.914062 64.273438 779.125 C 63.382812 778.335938 62.507812 777.519531 61.648438 776.675781 C 60.789062 775.828125 59.945312 774.957031 59.117188 774.058594 C 58.289062 773.15625 57.480469 772.230469 56.6875 771.277344 C 55.894531 770.324219 55.117188 769.347656 54.363281 768.34375 C 53.605469 767.339844 52.867188 766.316406 52.148438 765.261719 C 51.429688 764.210938 50.730469 763.140625 50.050781 762.042969 C 49.371094 760.945312 48.714844 759.828125 48.074219 758.6875 C 47.4375 757.546875 46.820312 756.390625 46.226562 755.210938 C 45.632812 754.03125 45.058594 752.832031 44.507812 751.617188 C 43.957031 750.398438 43.429688 749.164062 42.925781 747.914062 C 42.421875 746.664062 41.941406 745.394531 41.484375 744.113281 C 41.023438 742.832031 40.589844 741.535156 40.179688 740.222656 C 39.773438 738.914062 39.386719 737.589844 39.027344 736.253906 C 38.664062 734.917969 38.328125 733.574219 38.019531 732.214844 C 37.707031 730.859375 37.421875 729.492188 37.164062 728.113281 C 36.902344 726.738281 36.667969 725.355469 36.460938 723.964844 C 36.25 722.574219 36.066406 721.175781 35.910156 719.773438 C 35.753906 718.371094 35.621094 716.960938 35.515625 715.550781 C 35.414062 714.136719 35.332031 712.722656 35.28125 711.308594 C 35.226562 709.890625 35.203125 708.472656 35.203125 707.054688 C 35.203125 705.636719 35.226562 704.21875 35.28125 702.800781 C 35.332031 701.382812 35.414062 699.96875 35.515625 698.558594 C 35.621094 697.148438 35.753906 695.738281 35.910156 694.335938 C 36.066406 692.933594 36.25 691.535156 36.460938 690.144531 C 36.667969 688.753906 36.902344 687.371094 37.164062 685.992188 C 37.421875 684.617188 37.707031 683.25 38.019531 681.894531 C 38.328125 680.535156 38.664062 679.1875 39.027344 677.855469 C 39.386719 676.519531 39.773438 675.195312 40.179688 673.882812 C 40.589844 672.574219 41.023438 671.277344 41.484375 669.996094 C 41.941406 668.710938 42.421875 667.445312 42.925781 666.195312 C 43.429688 664.945312 43.957031 663.710938 44.507812 662.492188 C 45.058594 661.277344 45.632812 660.078125 46.226562 658.898438 C 46.820312 657.71875 47.4375 656.558594 48.074219 655.421875 C 48.714844 654.28125 49.371094 653.164062 50.050781 652.066406 C 50.730469 650.96875 51.429688 649.894531 52.148438 648.84375 C 52.867188 647.792969 53.605469 646.765625 54.363281 645.765625 C 55.117188 644.761719 55.894531 643.78125 56.6875 642.832031 C 57.480469 641.878906 58.289062 640.953125 59.117188 640.050781 C 59.945312 639.152344 60.789062 638.277344 61.648438 637.433594 C 62.507812 636.589844 63.382812 635.773438 64.273438 634.984375 C 65.164062 634.195312 66.070312 633.4375 66.988281 632.707031 C 67.90625 631.980469 68.835938 631.28125 69.78125 630.613281 C 70.726562 629.941406 71.679688 629.304688 72.648438 628.699219 C 73.617188 628.09375 74.59375 627.515625 75.585938 626.972656 C 76.574219 626.429688 77.570312 625.921875 78.578125 625.441406 C 79.585938 624.964844 80.605469 624.519531 81.628906 624.109375 C 82.652344 623.695312 83.683594 623.320312 84.722656 622.972656 C 85.761719 622.628906 86.804688 622.320312 87.855469 622.042969 C 88.90625 621.765625 89.960938 621.523438 91.019531 621.316406 C 92.078125 621.105469 93.140625 620.933594 94.207031 620.792969 C 95.269531 620.65625 96.339844 620.550781 97.40625 620.480469 C 98.476562 620.410156 99.546875 620.375 100.617188 620.375 C 101.6875 620.375 102.757812 620.410156 103.828125 620.480469 C 104.894531 620.550781 105.964844 620.65625 107.027344 620.792969 C 108.09375 620.933594 109.15625 621.105469 110.214844 621.316406 C 111.273438 621.523438 112.328125 621.765625 113.378906 622.042969 C 114.429688 622.320312 115.472656 622.628906 116.511719 622.972656 C 117.550781 623.320312 118.582031 623.695312 119.605469 624.109375 C 120.632812 624.519531 121.648438 624.964844 122.65625 625.441406 C 123.664062 625.921875 124.660156 626.429688 125.652344 626.972656 C 126.640625 627.515625 127.617188 628.09375 128.585938 628.699219 C 129.554688 629.304688 130.507812 629.941406 131.453125 630.609375 C 132.398438 631.28125 133.328125 631.980469 134.246094 632.707031 C 135.164062 633.4375 136.070312 634.195312 136.960938 634.984375 C 137.851562 635.773438 138.726562 636.589844 139.585938 637.433594 C 140.445312 638.277344 141.289062 639.152344 142.117188 640.050781 C 142.945312 640.953125 143.753906 641.878906 144.546875 642.832031 C 145.339844 643.78125 146.117188 644.761719 146.871094 645.765625 C 147.628906 646.765625 148.367188 647.792969 149.085938 648.84375 C 149.804688 649.894531 150.503906 650.96875 151.183594 652.066406 C 151.863281 653.164062 152.523438 654.28125 153.160156 655.421875 C 153.796875 656.558594 154.414062 657.71875 155.007812 658.898438 C 155.601562 660.078125 156.175781 661.277344 156.726562 662.492188 C 157.277344 663.710938 157.804688 664.945312 158.308594 666.195312 C 158.8125 667.445312 159.292969 668.710938 159.753906 669.996094 C 160.210938 671.277344 160.644531 672.574219 161.054688 673.882812 C 161.460938 675.195312 161.847656 676.519531 162.207031 677.851562 C 162.570312 679.1875 162.90625 680.535156 163.214844 681.894531 C 163.527344 683.25 163.8125 684.617188 164.070312 685.992188 C 164.332031 687.371094 164.566406 688.753906 164.777344 690.144531 C 164.984375 691.535156 165.167969 692.933594 165.324219 694.335938 C 165.480469 695.738281 165.613281 697.148438 165.71875 698.558594 C 165.824219 699.96875 165.902344 701.382812 165.953125 702.800781 C 166.007812 704.21875 166.03125 705.636719 166.03125 707.054688 Z M 166.03125 707.054688 " fill-opacity="1" fill-rule="evenodd"/><path fill="#ff7f2a" d="M 404.457031 839.964844 C 296.183594 840.015625 197.121094 884.5625 123.96875 957.679688 C 55.527344 1026.089844 9.765625 1119.511719 0.355469 1224.917969 L 808.738281 1224.917969 C 789.269531 1006.773438 614.097656 839.976562 404.457031 839.964844 Z M 404.457031 839.964844 " fill-opacity="1" fill-rule="evenodd"/><path fill="#aa4400" d="M 404.546875 997.9375 C 404.546875 997.9375 335.640625 1073.40625 298.246094 1079.65625 C 237.75 1089.765625 187.578125 935.851562 187.578125 935.851562 C 219.898438 881.414062 210.65625 908.90625 257.964844 878.078125 Z M 404.546875 997.9375 " fill-opacity="1" fill-rule="nonzero"/><path fill="#aa4400" d="M 404.546875 997.9375 C 404.546875 997.9375 473.453125 1073.40625 510.851562 1079.65625 C 571.34375 1089.765625 621.519531 935.851562 621.519531 935.851562 C 589.199219 881.414062 598.4375 908.90625 551.128906 878.078125 Z M 404.546875 997.9375 " fill-opacity="1" fill-rule="nonzero"/><path fill="#fcc2ac" d="M 712.519531 662.882812 C 712.519531 855.449219 584.875 1011.554688 404.546875 1011.554688 C 224.222656 1011.554688 96.574219 855.449219 96.574219 662.882812 C 96.574219 470.3125 224.222656 314.207031 404.546875 314.207031 C 584.875 314.207031 712.519531 470.3125 712.519531 662.882812 Z M 712.519531 662.882812 " fill-opacity="1" fill-rule="evenodd"/><path fill="#000000" d="M 427.125 772.296875 C 425.925781 783.425781 426.839844 794.824219 421.78125 802.660156 C 419.253906 806.578125 415.292969 809.816406 408.359375 812.019531 C 401.425781 814.21875 391.53125 815.273438 377.605469 814.53125 L 377.359375 819.160156 C 391.628906 819.921875 402.03125 818.890625 409.757812 816.441406 C 417.488281 813.988281 422.554688 810.011719 425.675781 805.179688 C 431.914062 795.507812 430.609375 783.25 431.734375 772.792969 Z M 427.125 772.296875 " fill-opacity="1" fill-rule="nonzero"/><path fill="#000000" d="M 297.578125 692.847656 C 297.578125 694.453125 297.539062 696.054688 297.460938 697.652344 C 297.382812 699.25 297.265625 700.835938 297.109375 702.410156 C 296.953125 703.988281 296.757812 705.542969 296.523438 707.078125 C 296.292969 708.617188 296.023438 710.125 295.714844 711.609375 C 295.410156 713.09375 295.066406 714.542969 294.6875 715.960938 C 294.308594 717.375 293.898438 718.75 293.453125 720.085938 C 293.007812 721.421875 292.53125 722.710938 292.019531 723.953125 C 291.511719 725.191406 290.972656 726.382812 290.40625 727.515625 C 289.839844 728.652344 289.246094 729.730469 288.625 730.75 C 288.007812 731.765625 287.363281 732.722656 286.695312 733.613281 C 286.03125 734.507812 285.34375 735.332031 284.636719 736.089844 C 283.925781 736.84375 283.203125 737.53125 282.460938 738.144531 C 281.722656 738.761719 280.96875 739.300781 280.199219 739.765625 C 279.433594 740.234375 278.65625 740.621094 277.867188 740.9375 C 277.082031 741.25 276.289062 741.484375 275.492188 741.640625 C 274.695312 741.800781 273.894531 741.878906 273.089844 741.878906 C 272.289062 741.878906 271.488281 741.800781 270.691406 741.640625 C 269.894531 741.484375 269.101562 741.25 268.3125 740.9375 C 267.527344 740.621094 266.75 740.234375 265.984375 739.765625 C 265.214844 739.300781 264.460938 738.761719 263.71875 738.144531 C 262.980469 737.53125 262.253906 736.84375 261.546875 736.089844 C 260.839844 735.332031 260.152344 734.507812 259.488281 733.613281 C 258.820312 732.722656 258.175781 731.765625 257.554688 730.75 C 256.9375 729.730469 256.34375 728.652344 255.777344 727.515625 C 255.207031 726.382812 254.671875 725.191406 254.160156 723.953125 C 253.652344 722.710938 253.175781 721.421875 252.730469 720.085938 C 252.285156 718.75 251.871094 717.375 251.496094 715.960938 C 251.117188 714.542969 250.773438 713.09375 250.46875 711.609375 C 250.160156 710.125 249.890625 708.617188 249.65625 707.078125 C 249.425781 705.542969 249.230469 703.988281 249.074219 702.410156 C 248.917969 700.835938 248.800781 699.25 248.722656 697.652344 C 248.640625 696.054688 248.601562 694.453125 248.601562 692.847656 C 248.601562 691.238281 248.640625 689.636719 248.722656 688.039062 C 248.800781 686.441406 248.917969 684.855469 249.074219 683.28125 C 249.230469 681.707031 249.425781 680.148438 249.65625 678.613281 C 249.890625 677.074219 250.160156 675.566406 250.46875 674.082031 C 250.773438 672.597656 251.117188 671.148438 251.496094 669.730469 C 251.871094 668.316406 252.285156 666.941406 252.730469 665.605469 C 253.175781 664.269531 253.652344 662.980469 254.160156 661.742188 C 254.671875 660.5 255.207031 659.308594 255.777344 658.175781 C 256.34375 657.039062 256.9375 655.960938 257.554688 654.945312 C 258.175781 653.925781 258.820312 652.96875 259.488281 652.078125 C 260.152344 651.183594 260.839844 650.359375 261.546875 649.601562 C 262.253906 648.847656 262.980469 648.160156 263.71875 647.546875 C 264.460938 646.929688 265.214844 646.390625 265.984375 645.925781 C 266.75 645.457031 267.527344 645.070312 268.3125 644.753906 C 269.101562 644.441406 269.894531 644.207031 270.691406 644.050781 C 271.488281 643.890625 272.289062 643.8125 273.089844 643.8125 C 273.894531 643.8125 274.695312 643.890625 275.492188 644.050781 C 276.289062 644.207031 277.082031 644.441406 277.867188 644.753906 C 278.65625 645.070312 279.433594 645.457031 280.199219 645.925781 C 280.96875 646.390625 281.722656 646.929688 282.460938 647.546875 C 283.203125 648.160156 283.925781 648.847656 284.636719 649.601562 C 285.34375 650.359375 286.03125 651.183594 286.695312 652.078125 C 287.363281 652.96875 288.007812 653.925781 288.625 654.945312 C 289.246094 655.960938 289.839844 657.039062 290.40625 658.175781 C 290.972656 659.308594 291.511719 660.5 292.019531 661.738281 C 292.53125 662.980469 293.007812 664.269531 293.453125 665.605469 C 293.898438 666.941406 294.308594 668.316406 294.6875 669.730469 C 295.066406 671.148438 295.410156 672.597656 295.714844 674.082031 C 296.023438 675.566406 296.292969 677.074219 296.523438 678.613281 C 296.757812 680.148438 296.953125 681.707031 297.109375 683.28125 C 297.265625 684.855469 297.382812 686.441406 297.460938 688.039062 C 297.539062 689.636719 297.578125 691.238281 297.578125 692.847656 Z M 297.578125 692.847656 " fill-opacity="1" fill-rule="evenodd"/><path fill="#ffffff" d="M 285.074219 670.777344 C 285.074219 671.710938 285.027344 672.636719 284.933594 673.550781 C 284.839844 674.464844 284.699219 675.355469 284.515625 676.214844 C 284.332031 677.078125 284.105469 677.898438 283.839844 678.671875 C 283.574219 679.449219 283.269531 680.167969 282.929688 680.828125 C 282.589844 681.484375 282.222656 682.074219 281.820312 682.59375 C 281.421875 683.113281 281 683.550781 280.554688 683.90625 C 280.113281 684.265625 279.65625 684.535156 279.183594 684.714844 C 278.710938 684.898438 278.238281 684.988281 277.757812 684.988281 C 277.277344 684.988281 276.800781 684.898438 276.328125 684.714844 C 275.855469 684.535156 275.398438 684.265625 274.957031 683.90625 C 274.511719 683.550781 274.089844 683.113281 273.691406 682.59375 C 273.292969 682.074219 272.921875 681.484375 272.582031 680.828125 C 272.242188 680.167969 271.9375 679.449219 271.671875 678.671875 C 271.40625 677.898438 271.179688 677.078125 270.996094 676.214844 C 270.8125 675.355469 270.671875 674.464844 270.578125 673.550781 C 270.484375 672.636719 270.4375 671.710938 270.4375 670.777344 C 270.4375 669.84375 270.484375 668.921875 270.578125 668.003906 C 270.671875 667.089844 270.8125 666.203125 270.996094 665.339844 C 271.179688 664.476562 271.40625 663.660156 271.671875 662.882812 C 271.9375 662.105469 272.242188 661.390625 272.582031 660.730469 C 272.921875 660.070312 273.292969 659.480469 273.691406 658.960938 C 274.089844 658.445312 274.511719 658.007812 274.957031 657.648438 C 275.398438 657.292969 275.859375 657.023438 276.328125 656.839844 C 276.800781 656.660156 277.277344 656.566406 277.757812 656.566406 C 278.238281 656.566406 278.710938 656.660156 279.183594 656.839844 C 279.65625 657.023438 280.113281 657.292969 280.554688 657.648438 C 281 658.007812 281.421875 658.445312 281.820312 658.960938 C 282.222656 659.480469 282.589844 660.070312 282.929688 660.730469 C 283.269531 661.390625 283.574219 662.105469 283.839844 662.882812 C 284.105469 663.660156 284.332031 664.476562 284.515625 665.339844 C 284.699219 666.203125 284.839844 667.089844 284.933594 668.003906 C 285.027344 668.921875 285.074219 669.84375 285.074219 670.777344 Z M 285.074219 670.777344 " fill-opacity="1" fill-rule="evenodd"/><path fill="#e6e6e6" d="M 265.949219 581.964844 C 242.097656 584.53125 229.015625 595.0625 203.238281 615.902344 L 202.65625 628.855469 C 250.167969 590.441406 287.089844 593.285156 329.273438 608.957031 L 335.363281 592.515625 C 312.832031 584.144531 289.800781 579.402344 265.949219 581.964844 Z M 265.949219 581.964844 " fill-opacity="1" fill-rule="nonzero"/><path fill="#e6e6e6" d="M 543.148438 581.964844 C 567 584.53125 580.078125 595.0625 605.855469 615.902344 L 606.4375 628.855469 C 558.925781 590.441406 522.003906 593.285156 479.820312 608.957031 L 473.730469 592.515625 C 496.265625 584.144531 519.296875 579.402344 543.148438 581.964844 Z M 543.148438 581.964844 " fill-opacity="1" fill-rule="nonzero"/><path fill="#000000" d="M 564.574219 692.847656 C 564.574219 694.453125 564.535156 696.054688 564.457031 697.652344 C 564.375 699.25 564.257812 700.835938 564.101562 702.410156 C 563.945312 703.988281 563.75 705.542969 563.519531 707.078125 C 563.285156 708.617188 563.015625 710.125 562.710938 711.609375 C 562.402344 713.09375 562.058594 714.542969 561.683594 715.960938 C 561.304688 717.375 560.890625 718.75 560.445312 720.085938 C 560 721.421875 559.523438 722.710938 559.015625 723.953125 C 558.507812 725.191406 557.96875 726.382812 557.402344 727.515625 C 556.832031 728.652344 556.242188 729.730469 555.621094 730.75 C 555 731.765625 554.355469 732.722656 553.691406 733.613281 C 553.023438 734.507812 552.335938 735.332031 551.628906 736.089844 C 550.921875 736.847656 550.195312 737.53125 549.457031 738.144531 C 548.714844 738.761719 547.960938 739.300781 547.195312 739.765625 C 546.425781 740.234375 545.648438 740.621094 544.863281 740.9375 C 544.074219 741.25 543.285156 741.484375 542.484375 741.640625 C 541.6875 741.800781 540.886719 741.878906 540.085938 741.878906 C 539.28125 741.878906 538.484375 741.800781 537.683594 741.640625 C 536.886719 741.484375 536.09375 741.25 535.308594 740.9375 C 534.519531 740.621094 533.742188 740.234375 532.976562 739.765625 C 532.210938 739.300781 531.453125 738.761719 530.714844 738.144531 C 529.972656 737.53125 529.25 736.84375 528.542969 736.089844 C 527.835938 735.332031 527.148438 734.507812 526.480469 733.613281 C 525.8125 732.722656 525.167969 731.765625 524.550781 730.75 C 523.929688 729.730469 523.335938 728.652344 522.769531 727.515625 C 522.203125 726.382812 521.664062 725.191406 521.15625 723.953125 C 520.648438 722.710938 520.167969 721.421875 519.722656 720.085938 C 519.277344 718.75 518.867188 717.375 518.488281 715.960938 C 518.109375 714.542969 517.769531 713.09375 517.460938 711.609375 C 517.152344 710.125 516.882812 708.617188 516.652344 707.078125 C 516.417969 705.542969 516.222656 703.988281 516.066406 702.410156 C 515.910156 700.835938 515.792969 699.25 515.714844 697.652344 C 515.636719 696.054688 515.597656 694.453125 515.597656 692.847656 C 515.597656 691.238281 515.636719 689.636719 515.714844 688.039062 C 515.792969 686.441406 515.910156 684.855469 516.066406 683.28125 C 516.222656 681.707031 516.417969 680.148438 516.652344 678.613281 C 516.882812 677.074219 517.152344 675.566406 517.460938 674.082031 C 517.769531 672.597656 518.109375 671.148438 518.488281 669.730469 C 518.867188 668.316406 519.277344 666.941406 519.722656 665.605469 C 520.167969 664.269531 520.648438 662.980469 521.15625 661.742188 C 521.664062 660.5 522.203125 659.308594 522.769531 658.175781 C 523.335938 657.039062 523.929688 655.960938 524.550781 654.945312 C 525.167969 653.925781 525.8125 652.96875 526.480469 652.078125 C 527.148438 651.183594 527.835938 650.359375 528.542969 649.601562 C 529.25 648.847656 529.972656 648.160156 530.714844 647.546875 C 531.453125 646.929688 532.210938 646.390625 532.976562 645.925781 C 533.742188 645.457031 534.519531 645.070312 535.308594 644.753906 C 536.09375 644.441406 536.886719 644.207031 537.683594 644.050781 C 538.484375 643.890625 539.28125 643.8125 540.085938 643.8125 C 540.886719 643.8125 541.6875 643.890625 542.484375 644.050781 C 543.285156 644.207031 544.074219 644.441406 544.863281 644.753906 C 545.648438 645.070312 546.425781 645.457031 547.195312 645.925781 C 547.960938 646.390625 548.714844 646.929688 549.457031 647.546875 C 550.195312 648.160156 550.921875 648.847656 551.628906 649.601562 C 552.335938 650.359375 553.023438 651.183594 553.691406 652.078125 C 554.355469 652.96875 555 653.925781 555.621094 654.945312 C 556.238281 655.960938 556.832031 657.039062 557.402344 658.175781 C 557.96875 659.308594 558.507812 660.5 559.015625 661.742188 C 559.523438 662.980469 560 664.269531 560.445312 665.605469 C 560.890625 666.941406 561.304688 668.316406 561.683594 669.730469 C 562.058594 671.148438 562.402344 672.597656 562.710938 674.082031 C 563.015625 675.566406 563.285156 677.074219 563.519531 678.613281 C 563.75 680.148438 563.945312 681.707031 564.101562 683.28125 C 564.257812 684.855469 564.375 686.441406 564.457031 688.039062 C 564.535156 689.636719 564.574219 691.238281 564.574219 692.847656 Z M 564.574219 692.847656 " fill-opacity="1" fill-rule="evenodd"/><path fill="#ffffff" d="M 552.066406 670.777344 C 552.066406 671.710938 552.019531 672.636719 551.925781 673.550781 C 551.832031 674.464844 551.695312 675.355469 551.511719 676.214844 C 551.328125 677.078125 551.101562 677.898438 550.835938 678.671875 C 550.566406 679.449219 550.265625 680.167969 549.925781 680.828125 C 549.585938 681.484375 549.214844 682.074219 548.816406 682.59375 C 548.414062 683.113281 547.992188 683.550781 547.550781 683.90625 C 547.105469 684.265625 546.648438 684.535156 546.175781 684.714844 C 545.707031 684.898438 545.230469 684.988281 544.75 684.988281 C 544.269531 684.988281 543.792969 684.898438 543.320312 684.714844 C 542.851562 684.535156 542.394531 684.265625 541.949219 683.90625 C 541.503906 683.550781 541.082031 683.113281 540.683594 682.59375 C 540.285156 682.074219 539.914062 681.484375 539.574219 680.828125 C 539.234375 680.167969 538.933594 679.449219 538.664062 678.671875 C 538.398438 677.898438 538.171875 677.078125 537.988281 676.214844 C 537.804688 675.355469 537.667969 674.464844 537.574219 673.550781 C 537.480469 672.636719 537.433594 671.710938 537.433594 670.777344 C 537.433594 669.84375 537.480469 668.921875 537.574219 668.003906 C 537.667969 667.089844 537.804688 666.203125 537.988281 665.339844 C 538.171875 664.476562 538.398438 663.660156 538.664062 662.882812 C 538.933594 662.105469 539.234375 661.390625 539.574219 660.730469 C 539.914062 660.070312 540.285156 659.480469 540.683594 658.960938 C 541.082031 658.445312 541.503906 658.007812 541.949219 657.648438 C 542.394531 657.292969 542.851562 657.023438 543.320312 656.839844 C 543.792969 656.660156 544.269531 656.566406 544.75 656.566406 C 545.230469 656.566406 545.707031 656.660156 546.175781 656.839844 C 546.648438 657.023438 547.105469 657.292969 547.550781 657.648438 C 547.992188 658.007812 548.414062 658.445312 548.816406 658.960938 C 549.214844 659.480469 549.585938 660.070312 549.925781 660.730469 C 550.265625 661.390625 550.566406 662.105469 550.832031 662.882812 C 551.101562 663.660156 551.328125 664.476562 551.511719 665.339844 C 551.695312 666.203125 551.832031 667.089844 551.925781 668.003906 C 552.019531 668.921875 552.066406 669.84375 552.066406 670.777344 Z M 552.066406 670.777344 " fill-opacity="1" fill-rule="evenodd"/><path fill="#000000" d="M 485.300781 898.320312 C 432.925781 925.804688 375.558594 929.613281 324.042969 898.390625 L 321.640625 902.359375 C 374.609375 934.460938 433.996094 930.480469 487.453125 902.429688 Z M 485.300781 898.320312 " fill-opacity="1" fill-rule="nonzero"/><path fill="#f3b493" d="M 275.113281 799.25 C 275.113281 800.101562 275.027344 800.949219 274.851562 801.796875 C 274.675781 802.644531 274.410156 803.488281 274.0625 804.324219 C 273.710938 805.15625 273.273438 805.984375 272.753906 806.796875 C 272.234375 807.613281 271.628906 808.414062 270.941406 809.199219 C 270.253906 809.988281 269.488281 810.757812 268.640625 811.507812 C 267.792969 812.257812 266.871094 812.988281 265.875 813.695312 C 264.875 814.40625 263.808594 815.085938 262.667969 815.746094 C 261.527344 816.40625 260.324219 817.035156 259.054688 817.636719 C 257.785156 818.238281 256.457031 818.808594 255.066406 819.351562 C 253.679688 819.890625 252.238281 820.398438 250.746094 820.871094 C 249.253906 821.34375 247.714844 821.78125 246.128906 822.183594 C 244.546875 822.585938 242.925781 822.949219 241.265625 823.273438 C 239.605469 823.597656 237.917969 823.886719 236.199219 824.132812 C 234.480469 824.378906 232.742188 824.585938 230.980469 824.753906 C 229.21875 824.917969 227.445312 825.042969 225.65625 825.128906 C 223.867188 825.210938 222.078125 825.253906 220.28125 825.253906 C 218.484375 825.253906 216.695312 825.210938 214.90625 825.128906 C 213.121094 825.042969 211.34375 824.917969 209.585938 824.753906 C 207.824219 824.585938 206.082031 824.378906 204.363281 824.132812 C 202.644531 823.886719 200.957031 823.597656 199.296875 823.273438 C 197.636719 822.949219 196.015625 822.585938 194.433594 822.183594 C 192.847656 821.78125 191.3125 821.34375 189.816406 820.871094 C 188.324219 820.398438 186.882812 819.890625 185.496094 819.351562 C 184.109375 818.808594 182.777344 818.238281 181.507812 817.636719 C 180.238281 817.035156 179.035156 816.40625 177.894531 815.746094 C 176.753906 815.085938 175.6875 814.40625 174.6875 813.695312 C 173.691406 812.988281 172.769531 812.257812 171.921875 811.507812 C 171.078125 810.757812 170.308594 809.988281 169.621094 809.199219 C 168.933594 808.414062 168.332031 807.613281 167.808594 806.796875 C 167.289062 805.984375 166.851562 805.15625 166.5 804.324219 C 166.152344 803.488281 165.886719 802.644531 165.710938 801.796875 C 165.535156 800.949219 165.449219 800.101562 165.449219 799.25 C 165.449219 798.398438 165.535156 797.546875 165.710938 796.699219 C 165.886719 795.855469 166.152344 795.011719 166.5 794.175781 C 166.851562 793.339844 167.289062 792.515625 167.808594 791.703125 C 168.332031 790.886719 168.933594 790.085938 169.621094 789.296875 C 170.308594 788.511719 171.078125 787.742188 171.921875 786.992188 C 172.769531 786.242188 173.691406 785.511719 174.6875 784.804688 C 175.6875 784.09375 176.753906 783.410156 177.894531 782.753906 C 179.035156 782.09375 180.238281 781.464844 181.507812 780.863281 C 182.777344 780.261719 184.109375 779.6875 185.496094 779.148438 C 186.882812 778.609375 188.324219 778.101562 189.816406 777.628906 C 191.3125 777.15625 192.847656 776.71875 194.433594 776.316406 C 196.015625 775.914062 197.636719 775.550781 199.296875 775.226562 C 200.957031 774.898438 202.644531 774.613281 204.363281 774.367188 C 206.082031 774.117188 207.824219 773.914062 209.585938 773.746094 C 211.34375 773.582031 213.121094 773.457031 214.90625 773.371094 C 216.695312 773.289062 218.484375 773.246094 220.28125 773.246094 C 222.078125 773.246094 223.867188 773.289062 225.65625 773.371094 C 227.445312 773.457031 229.21875 773.582031 230.980469 773.746094 C 232.742188 773.914062 234.480469 774.117188 236.199219 774.367188 C 237.917969 774.613281 239.605469 774.898438 241.265625 775.226562 C 242.925781 775.550781 244.546875 775.914062 246.128906 776.316406 C 247.714844 776.71875 249.253906 777.15625 250.746094 777.628906 C 252.238281 778.101562 253.679688 778.609375 255.066406 779.148438 C 256.457031 779.6875 257.785156 780.261719 259.054688 780.863281 C 260.324219 781.464844 261.527344 782.09375 262.667969 782.753906 C 263.808594 783.410156 264.875 784.09375 265.875 784.804688 C 266.871094 785.511719 267.792969 786.242188 268.640625 786.992188 C 269.488281 787.742188 270.253906 788.511719 270.941406 789.296875 C 271.628906 790.085938 272.234375 790.886719 272.753906 791.703125 C 273.273438 792.515625 273.710938 793.339844 274.0625 794.175781 C 274.410156 795.011719 274.675781 795.855469 274.851562 796.699219 C 275.027344 797.546875 275.113281 798.398438 275.113281 799.25 Z M 275.113281 799.25 " fill-opacity="1" fill-rule="evenodd"/><path fill="#f3b493" d="M 643.648438 799.25 C 643.648438 800.101562 643.558594 800.949219 643.382812 801.796875 C 643.207031 802.644531 642.945312 803.488281 642.59375 804.324219 C 642.242188 805.15625 641.808594 805.984375 641.285156 806.796875 C 640.765625 807.613281 640.160156 808.414062 639.472656 809.199219 C 638.785156 809.988281 638.019531 810.757812 637.171875 811.507812 C 636.324219 812.257812 635.402344 812.988281 634.40625 813.695312 C 633.40625 814.40625 632.339844 815.085938 631.199219 815.746094 C 630.0625 816.40625 628.855469 817.035156 627.585938 817.636719 C 626.316406 818.238281 624.988281 818.808594 623.597656 819.351562 C 622.210938 819.890625 620.769531 820.398438 619.277344 820.871094 C 617.785156 821.34375 616.246094 821.78125 614.660156 822.183594 C 613.078125 822.585938 611.457031 822.949219 609.796875 823.273438 C 608.136719 823.597656 606.449219 823.886719 604.730469 824.132812 C 603.011719 824.378906 601.273438 824.585938 599.511719 824.753906 C 597.75 824.917969 595.976562 825.042969 594.1875 825.128906 C 592.402344 825.210938 590.609375 825.253906 588.8125 825.253906 C 587.019531 825.253906 585.226562 825.210938 583.4375 825.128906 C 581.652344 825.042969 579.878906 824.917969 578.117188 824.753906 C 576.355469 824.585938 574.613281 824.378906 572.894531 824.132812 C 571.179688 823.886719 569.488281 823.597656 567.828125 823.273438 C 566.171875 822.949219 564.550781 822.585938 562.964844 822.183594 C 561.382812 821.78125 559.84375 821.34375 558.351562 820.871094 C 556.855469 820.398438 555.414062 819.890625 554.027344 819.351562 C 552.640625 818.808594 551.308594 818.238281 550.039062 817.636719 C 548.769531 817.035156 547.566406 816.40625 546.425781 815.746094 C 545.289062 815.085938 544.21875 814.40625 543.222656 813.695312 C 542.222656 812.988281 541.300781 812.257812 540.453125 811.507812 C 539.609375 810.757812 538.839844 809.988281 538.152344 809.199219 C 537.46875 808.414062 536.863281 807.613281 536.339844 806.796875 C 535.820312 805.984375 535.382812 805.15625 535.035156 804.324219 C 534.683594 803.488281 534.421875 802.644531 534.246094 801.796875 C 534.066406 800.949219 533.980469 800.101562 533.980469 799.25 C 533.980469 798.398438 534.066406 797.546875 534.246094 796.699219 C 534.421875 795.855469 534.683594 795.011719 535.035156 794.175781 C 535.382812 793.339844 535.820312 792.515625 536.339844 791.703125 C 536.863281 790.886719 537.46875 790.085938 538.152344 789.296875 C 538.839844 788.511719 539.609375 787.742188 540.453125 786.992188 C 541.300781 786.242188 542.222656 785.511719 543.222656 784.804688 C 544.21875 784.09375 545.289062 783.410156 546.425781 782.753906 C 547.566406 782.09375 548.769531 781.464844 550.039062 780.863281 C 551.308594 780.261719 552.640625 779.6875 554.027344 779.148438 C 555.414062 778.609375 556.855469 778.101562 558.351562 777.628906 C 559.84375 777.15625 561.382812 776.71875 562.964844 776.316406 C 564.550781 775.914062 566.171875 775.550781 567.828125 775.226562 C 569.488281 774.898438 571.179688 774.613281 572.894531 774.367188 C 574.613281 774.117188 576.355469 773.914062 578.117188 773.746094 C 579.878906 773.582031 581.652344 773.457031 583.4375 773.371094 C 585.226562 773.289062 587.019531 773.246094 588.8125 773.246094 C 590.609375 773.246094 592.402344 773.289062 594.1875 773.371094 C 595.976562 773.457031 597.75 773.582031 599.511719 773.746094 C 601.273438 773.914062 603.011719 774.117188 604.730469 774.367188 C 606.449219 774.613281 608.136719 774.898438 609.796875 775.226562 C 611.457031 775.550781 613.078125 775.914062 614.660156 776.316406 C 616.246094 776.71875 617.785156 777.15625 619.277344 777.628906 C 620.769531 778.101562 622.210938 778.609375 623.597656 779.148438 C 624.988281 779.6875 626.316406 780.261719 627.585938 780.863281 C 628.855469 781.464844 630.0625 782.09375 631.199219 782.753906 C 632.339844 783.410156 633.40625 784.09375 634.40625 784.804688 C 635.402344 785.511719 636.324219 786.242188 637.171875 786.992188 C 638.019531 787.742188 638.785156 788.511719 639.472656 789.296875 C 640.160156 790.085938 640.765625 790.886719 641.285156 791.703125 C 641.808594 792.515625 642.242188 793.339844 642.59375 794.175781 C 642.945312 795.011719 643.207031 795.855469 643.382812 796.699219 C 643.558594 797.546875 643.648438 798.398438 643.648438 799.25 Z M 643.648438 799.25 " fill-opacity="1" fill-rule="evenodd"/><path fill="#f3b493" d="M 77.722656 672.765625 C 62.730469 689.652344 58.878906 703.347656 61.246094 715.078125 C 63.613281 726.808594 71.8125 736.113281 79.625 745.167969 L 83.132812 742.132812 C 75.3125 733.074219 67.832031 724.285156 65.789062 714.160156 C 63.742188 704.035156 66.746094 692.117188 81.1875 675.851562 Z M 77.722656 672.765625 " fill-opacity="1" fill-rule="nonzero"/><path fill="#f2f2f2" d="M 495.03125 368.046875 C 376.890625 498.992188 249.671875 573.507812 92.921875 631.933594 C 92.921875 631.933594 71.757812 547.183594 110.238281 452.800781 C 190.871094 247.339844 414.339844 208.851562 585.460938 296.78125 C 685.507812 352.636719 745.148438 473.988281 745.148438 531.773438 C 745.148438 589.558594 720.136719 630.007812 720.136719 630.007812 C 616.996094 570.667969 572.800781 483.035156 495.03125 368.046875 Z M 495.03125 368.046875 " fill-opacity="1" fill-rule="nonzero"/><path fill="#f3b493" d="M 316.699219 816.550781 C 307.472656 809.726562 238.488281 887.960938 248.761719 923.734375 L 253.109375 938.859375 C 256.667969 873.042969 317.484375 816.835938 320.085938 819.734375 Z M 316.699219 816.550781 " fill-opacity="1" fill-rule="nonzero"/><path fill="#f3b493" d="M 404.695312 513.578125 C 368.144531 512.558594 331.546875 517.902344 294.953125 532.699219 L 296.6875 537.003906 C 368.613281 507.925781 440.53125 515.917969 512.84375 537.082031 L 514.144531 532.628906 C 477.742188 521.972656 441.242188 514.59375 404.695312 513.578125 Z M 404.695312 513.578125 " fill-opacity="1" fill-rule="nonzero"/><path fill="#f3b493" d="M 404.691406 482.8125 C 371.332031 481.789062 337.925781 487.167969 304.53125 502.054688 L 306.335938 506.113281 C 371.84375 476.90625 437.304688 484.933594 503.203125 506.199219 L 504.5625 501.972656 C 471.359375 491.257812 438.050781 483.835938 404.691406 482.8125 Z M 404.691406 482.8125 " fill-opacity="1" fill-rule="nonzero"/><path fill="#e6e6e6" d="M 495.027344 368.054688 C 572.792969 483.042969 616.996094 570.667969 720.136719 630.007812 C 720.136719 630.007812 727.480469 618.039062 734.214844 597.9375 C 631.085938 538.59375 540.082031 425.25 495.027344 368.054688 Z M 495.027344 368.054688 C 419.21875 425.804688 246.054688 551.929688 89.3125 610.359375 C 90.957031 623.984375 92.914062 631.9375 92.914062 631.9375 C 249.664062 573.511719 376.886719 499 495.027344 368.054688 Z M 110.230469 452.804688 C 83.546875 518.261719 85.550781 579.015625 89.285156 610.152344 C 89.210938 608.941406 83.679688 517.929688 110.230469 452.804688 Z M 745.074219 536.820312 C 745.058594 537.546875 745.027344 538.257812 745.003906 538.976562 C 745.03125 538.257812 745.058594 537.546875 745.074219 536.820312 Z M 744.886719 541.957031 C 744.847656 542.691406 744.796875 543.410156 744.75 544.132812 C 744.792969 543.410156 744.847656 542.691406 744.886719 541.957031 Z M 744.558594 547.015625 C 744.519531 547.539062 744.476562 548.054688 744.433594 548.574219 C 744.476562 548.054688 744.523438 547.539062 744.558594 547.015625 Z M 744.160156 551.546875 C 743.910156 554.117188 743.617188 556.636719 743.285156 559.113281 C 743.617188 556.636719 743.910156 554.117188 744.160156 551.546875 Z M 743.085938 560.535156 C 742.730469 563.03125 742.34375 565.480469 741.917969 567.867188 C 742.34375 565.480469 742.730469 563.03125 743.085938 560.535156 Z M 741.644531 569.289062 C 741.367188 570.792969 741.0625 572.238281 740.757812 573.695312 C 741.0625 572.238281 741.367188 570.792969 741.644531 569.289062 Z M 739.699219 578.535156 C 739.425781 579.703125 739.152344 580.859375 738.867188 581.996094 C 739.152344 580.855469 739.425781 579.707031 739.699219 578.535156 Z M 737.636719 586.699219 C 737.375 587.648438 737.113281 588.59375 736.847656 589.515625 C 737.117188 588.59375 737.375 587.652344 737.636719 586.699219 Z M 735.527344 593.902344 C 735.21875 594.886719 734.90625 595.878906 734.59375 596.832031 C 734.90625 595.875 735.21875 594.890625 735.527344 593.902344 Z M 735.527344 593.902344 " fill-opacity="1" fill-rule="nonzero"/><path fill="#f3b493" d="M 490.644531 813.660156 C 499.871094 806.835938 568.855469 885.074219 558.582031 920.84375 L 554.238281 935.96875 C 550.675781 870.15625 489.863281 813.945312 487.257812 816.84375 Z M 490.644531 813.660156 " fill-opacity="1" fill-rule="nonzero"/><g clip-path="url(#bf11f556ae)"><g clip-path="url(#677ebf227b)"><g clip-path="url(#9933090365)"><path fill="#7ed957" d="M 302.144531 154.363281 C 312.882812 116.832031 329.335938 84.976562 351.503906 58.800781 C 378.089844 27.265625 402.273438 10.863281 424.058594 9.597656 C 441.347656 9.09375 456.707031 18.921875 470.144531 39.085938 C 483.800781 63.617188 495.292969 98.558594 504.613281 143.902344 C 509.921875 173.679688 496.515625 195.792969 464.398438 210.234375 C 452.824219 215.410156 440.132812 218.832031 426.324219 220.503906 L 314.484375 230.148438 Z M 302.144531 154.363281 " fill-opacity="1" fill-rule="nonzero"/></g></g></g><g clip-path="url(#fca2378267)"><g clip-path="url(#d7484c999d)"><g clip-path="url(#157fc13c25)"><path fill="#7ed957" d="M 345.746094 153.359375 C 332.871094 128.140625 309.257812 116.789062 274.90625 119.308594 C 261.882812 120.96875 253.296875 125.125 249.140625 131.777344 C 242.824219 141.234375 240.195312 153.082031 241.257812 167.328125 C 244.535156 201.675781 257.875 224.8125 281.269531 236.738281 C 292.8125 241.492188 304.84375 241.816406 317.363281 237.707031 C 325.265625 236.46875 335.878906 229.332031 349.207031 216.300781 Z M 345.746094 153.359375 " fill-opacity="1" fill-rule="nonzero"/></g></g></g><g clip-path="url(#2fc84224e9)"><g clip-path="url(#80f79c2d72)"><g clip-path="url(#9a0c933be1)"><path fill="#7ed957" d="M 273.261719 159.949219 C 225.617188 139.769531 185.089844 128.082031 151.675781 124.894531 C 114.710938 120.878906 90.671875 124.347656 79.550781 135.304688 C 67.40625 147.621094 62.90625 166.144531 66.042969 190.875 C 67.21875 196.761719 69.488281 203.746094 72.851562 211.832031 L 91.972656 250.089844 C 103.949219 287.15625 111.796875 306.644531 115.523438 308.558594 C 124.429688 322.578125 148.855469 320.769531 188.792969 303.132812 C 218.207031 290.320312 260.332031 260.113281 315.160156 212.519531 Z M 273.261719 159.949219 " fill-opacity="1" fill-rule="nonzero"/></g></g></g><g clip-path="url(#7c6ebf6bb0)"><g clip-path="url(#3c49dd4247)"><g clip-path="url(#0034ce0706)"><path fill="#7ed957" d="M 174.140625 257.863281 C 101.734375 324.058594 73.59375 420.355469 89.71875 546.75 C 115.042969 436.996094 148.386719 367.296875 189.742188 337.648438 C 257.417969 280.773438 336.324219 250.691406 426.460938 247.398438 C 495.175781 247.292969 565.320312 281.78125 636.890625 350.867188 C 701.496094 418.363281 737.488281 486.929688 744.867188 556.5625 C 740.339844 409.507812 688.660156 296.488281 589.832031 217.507812 C 511.441406 154.566406 416.316406 150.273438 304.445312 204.621094 Z M 174.140625 257.863281 " fill-opacity="1" fill-rule="nonzero"/></g></g></g><g clip-path="url(#0535041cf0)"><g clip-path="url(#eea15f1526)"><g clip-path="url(#831710d61c)"><path fill="#000000" d="M 337.691406 124.351562 C 351.929688 83.375 370.871094 54.140625 394.515625 36.648438 C 406.382812 28.660156 419.886719 26.875 435.03125 31.289062 C 444.738281 35.566406 446.492188 43.734375 440.300781 55.792969 C 436.285156 64.320312 428.101562 72.382812 415.746094 79.988281 C 393.976562 93.847656 369.089844 106.410156 341.089844 117.671875 Z M 337.691406 124.351562 " fill-opacity="1" fill-rule="nonzero"/></g></g></g><g clip-path="url(#dd2462be47)"><g clip-path="url(#2ab6bd2c47)"><g clip-path="url(#889944e4d0)"><path fill="#000000" d="M 223.824219 166.109375 C 222.089844 164.078125 217.46875 161.304688 209.964844 157.78125 C 201.007812 153.316406 191.800781 149.699219 182.339844 146.929688 C 157.53125 140.101562 139.039062 137.035156 126.875 137.738281 C 109.671875 139.566406 98.15625 144.6875 92.328125 153.097656 C 86.777344 162.707031 90.726562 169.886719 104.171875 174.644531 C 136.195312 184.378906 177.042969 181.890625 226.714844 167.175781 Z M 223.824219 166.109375 " fill-opacity="1" fill-rule="nonzero"/></g></g></g></g></g></svg>