<svg xmlns="http://www.w3.org/2000/svg" width="174mm" height="70.67mm" viewBox="0 0 493.22 200.32">
  <defs>
    <style>
      .cls-1 {
        fill: #212223;
      }

      .cls-2 {
        fill: #ea544c;
      }

      .cls-3 {
        fill: #4b4b4b;
      }

      .cls-4 {
        fill: #c0e4f0;
      }

      .cls-5 {
        fill: #fff;
      }

      .cls-6 {
        fill: #cbcaca;
      }
    </style>
  </defs>
  <g id="Layer_2" data-name="Layer 2">
    <g id="Layer_1-2" data-name="Layer 1">
      <g>
        <path class="cls-1" d="M437.8,50.64c-3.05-.77-5.75-1.48-8.47-2.13-4.3-1-8.7-2.17-9.19-7.5a13.13,13.13,0,0,1,6.49-13,22.51,22.51,0,0,1,7.87-2.82c16.22-3.08,32.45-6.26,48.92-7.59,8.38-.68,11.14,3.21,9.2,11.38a50.83,50.83,0,0,1-2.54,8.45c-3.79,8.81-10.19,14.2-20.2,14-3,0-4.79.57-4.85,3.89a8.68,8.68,0,0,1-.69,2.36c-1.72,5.29-2.94,9.87,2.59,14.57,4.44,3.77,5.43,10.39,6.95,16.08,2.64,9.85,4.77,19.83,7.2,29.74,4.8,19.55-7.39,42.16-24.21,51.17-6.16,3.3-12.4,6.3-19.62,6.09-1.78-.05-2.61.9-3.52,2.18-19.72,28-60.58,29-82.83,3.88a5.43,5.43,0,0,0-4.59-2.06q-85.65,0-171.31,0a5.57,5.57,0,0,0-4.83,2.45c-17.6,21.22-50.39,24.81-71.4,7.95-1.42-1.14-3.11-2.29-3.87-3.82-2.7-5.42-7.12-6-12.58-6-21.47,0-42.94-.31-64.41-.51a35.05,35.05,0,0,1-11.64-2.17c-6.09-2.24-8.54-9-3.72-13,7.71-6.46,7.21-14.84,7.68-23,.72-12.5,6.11-22.6,13.85-32.09C42.53,86.4,67.84,76.3,95,69.45a203.85,203.85,0,0,1,54.18-6c4.19.08,6.87-1.49,9.91-4.18C177.44,43,196.19,27.18,217,14c12.72-8,26.93-11.3,41.73-12.56A373,373,0,0,1,305.07.25c29.68,1.16,56.23,10.35,79.86,28.4,12.48,9.53,25.11,18.93,38.82,26.69C431.49,59.72,433.17,59.06,437.8,50.64ZM250.2,11.93c4.25,2,8.16,2,11.86,2.43,21.87,2.63,43.74,5.31,65.43,9.22,13.65,2.46,25,8.42,30.08,22.68,1.9,5.38,1.35,8.51-2.93,12.29a19.93,19.93,0,0,1-7.91,4c-15.7,4.63-31.92,6.34-48.11,6.74-45.93,1.14-91.88,1.66-137.83,2.15-21,.23-41.82,1.47-62.31,6.13-12,2.74-24,6-35,12.44,9.44,3.91,11.68,9.41,7.35,18.24S59.31,122.6,50,125.33c-7.2,2.1-14.66,2.65-22.12,3-4.15.21-7,1.27-7.67,6.24-.63,4.75-1.66,9.51-1.66,14.28,0,6.77-1.12,12.86-6.54,17.53-2.16,1.87-1.92,3.34,1.09,3.87a48,48,0,0,0,8.88,1.06c13.32-.08,26.64,0,40,0H83.3c-8.26-31.14-1.79-53.76,19.38-68.58,16.79-11.77,39.72-12,56.08-.78a56.48,56.48,0,0,1,21,26.48c5.69,14.42,4,28.52-1.94,42.36a4.93,4.93,0,0,0,1.23.48c53.45-.06,106.89.19,160.33-.91,3.7-.08,3.17-2,2.34-4.17a60.48,60.48,0,0,1-3.77-28.65c3.69-33.2,36.76-55.64,68.83-46.31,21,6.1,37.83,28.49,38.36,50.54.19,8-1.59,15.62-4,23.24,20.14-1.7,34.43-24.58,32.42-38.84-2.06-14.6-5.2-29.25-10.47-43.24-2.16-5.75-6.37-8.39-12.21-9.54-13.17-2.58-26.09-5.88-37.27-13.92-8.88-6.39-18.22-12.17-26.84-18.89-29-22.63-61.87-33-98.55-32.14A328,328,0,0,0,250.2,11.93Zm96.86,132.58c-1.51,26.2,20.92,46.89,44.29,46.55,26.33-.38,44.33-19.79,44.35-45.43,0-27.18-21.57-45.63-45.05-46.49C365.1,98.21,345.52,123.62,347.06,144.51Zm-172.73,4.17c.26-25.22-19.35-45.68-42.49-45.91-25.61-.25-43.17,20.58-43.45,45.15-.28,24.17,18.36,44.32,40.59,44.39C154.51,192.38,174.29,173.35,174.33,148.68Zm33.42-87.23c27.69,0,54.79,0,81.89,0,3.25,0,3.81-2.19,4.37-4.38,2.09-8.15,4-16.36,6.06-24.5.75-2.92-.21-3.95-3.09-4.6-13.81-3.16-27.88-3.79-41.93-4.69-1.84-.12-3.06,1-4.35,2-6.92,5.71-13.91,11.32-20.79,17.07C222.46,48.67,214.63,54.47,207.75,61.45Zm34-39.7c-9.12-3-16.78-1.57-27.6,5.43-14.48,9.37-28,20-41.56,30.65-1.77,1.39-4.12,2.59-4.93,5.46,5.76,0,11.09-.36,16.35.09,6.54.56,11.41-2.14,16.12-6.21C213.79,45.36,227.62,33.74,241.74,21.75Zm67.88,37.77c10.7-.89,21.38-2,31.79-4.7,7.81-2,8.74-5.08,4-11.52-.5-.66-1.12-1.23-1.67-1.85-8.86-10.12-21.37-10.11-33.21-11.9-2.3-.35-3,1.22-3.37,3.33-1.28,7.31-2.44,14.67-4.32,21.84-1.07,4.11,0,5.19,3.83,4.82A29.8,29.8,0,0,1,309.62,59.52ZM468.51,43.89c4.56.81,10.49-1.64,13.55-9.38,1-2.58,3.15-5.45,1.56-8s-4.55,0-6.9-.08a9.37,9.37,0,0,0-1.5.05c-13.72,2.11-27.51,3.87-41,7.38-2.61.68-5,2-4.87,4.81.13,3,3.43,2.38,5.14,2.55C444.72,42.28,455,42.89,468.51,43.89ZM28.66,119.42c4.24.92,9.12.44,13.77-.22,10.25-1.46,18-6.7,22.15-16.67.85-2.06.74-2.69-1.53-3.34a19.42,19.42,0,0,0-19.61,4.69C38.24,108.71,33.62,114.15,28.66,119.42ZM450,50.43c-1.67.25-3.68-.67-4.43.77a89,89,0,0,1-5.49,8.26c-1.22,1.82.31,2.38,1.55,2.73,2.86.81,5.76,1.51,8.66,2.12,1.28.27,2.94.61,3.75-.59a15.84,15.84,0,0,0,2.57-10.84C456.27,50.28,452.24,51.07,450,50.43Z"/>
        <path class="cls-2" d="M250.2,11.93a328,328,0,0,1,38-3.48c36.68-.84,69.53,9.51,98.55,32.14,8.62,6.72,18,12.5,26.84,18.89,11.18,8,24.1,11.34,37.27,13.92,5.84,1.15,10.05,3.79,12.21,9.54,5.27,14,8.41,28.64,10.47,43.24,2,14.26-12.28,37.14-32.42,38.84,2.42-7.62,4.2-15.23,4-23.24-.53-22-17.41-44.44-38.36-50.54-32.07-9.33-65.14,13.11-68.83,46.31a60.48,60.48,0,0,0,3.77,28.65c.83,2.18,1.36,4.09-2.34,4.17-53.44,1.1-106.88.85-160.33.91a4.93,4.93,0,0,1-1.23-.48c5.95-13.84,7.63-27.94,1.94-42.36a56.48,56.48,0,0,0-21-26.48c-16.36-11.26-39.29-11-56.08.78C81.51,117.56,75,140.18,83.3,171.32H61.89c-13.32,0-26.64,0-40,0a48,48,0,0,1-8.88-1.06c-3-.53-3.25-2-1.09-3.87,5.42-4.67,6.55-10.76,6.54-17.53,0-4.77,1-9.53,1.66-14.28.66-5,3.52-6,7.67-6.24,7.46-.39,14.92-.94,22.12-3C59.31,122.6,66.5,117,70.82,108.2S72.91,93.87,63.47,90c11-6.48,23-9.7,35-12.44,20.49-4.66,41.34-5.9,62.31-6.13,46-.49,91.9-1,137.83-2.15,16.19-.4,32.41-2.11,48.11-6.74a19.93,19.93,0,0,0,7.91-4c4.28-3.78,4.83-6.91,2.93-12.29C352.53,32,341.14,26,327.49,23.58c-21.69-3.91-43.56-6.59-65.43-9.22C258.36,13.91,254.45,13.92,250.2,11.93Zm47.87,77.38v.11c-4,0-8,0-12,0-3.08,0-4,1.7-4,4.46s.9,4.55,4,4.55c7.82,0,15.64,0,23.46,0,3.17,0,5.19-1.74,5.09-4.87-.11-3.29-2.45-4.34-5.56-4.23C305.39,89.41,301.73,89.31,298.07,89.31Z"/>
        <path class="cls-3" d="M347.06,144.51c-1.54-20.89,18-46.3,43.59-45.37,23.48.86,45.06,19.31,45.05,46.49,0,25.64-18,45.05-44.35,45.43C368,191.4,345.55,170.71,347.06,144.51Zm70,1.19c.05-16.43-10.91-28.36-26.2-28.27-15.9.09-26.34,11.73-26.43,28.19-.08,15.27,10.62,26.7,27,27.53C405.39,173.86,417,160.82,417.09,145.7Z"/>
        <path class="cls-3" d="M174.33,148.68c0,24.67-19.82,43.7-45.35,43.63-22.23-.07-40.87-20.22-40.59-44.39.28-24.57,17.84-45.4,43.45-45.15C155,103,174.59,123.46,174.33,148.68Zm-69-.6c-1.11,12.78,10.92,26.81,25.72,26.33,15.58-.49,27.23-11.58,27.25-26.93a27.39,27.39,0,0,0-26.85-27C116.62,120.36,104.29,135.08,105.31,148.08Z"/>
        <path class="cls-4" d="M207.75,61.45c6.88-7,14.71-12.78,22.16-19,6.88-5.75,13.87-11.36,20.79-17.07,1.29-1.07,2.51-2.16,4.35-2,14.05.9,28.12,1.53,41.93,4.69,2.88.65,3.84,1.68,3.09,4.6-2.1,8.14-4,16.35-6.06,24.5-.56,2.19-1.12,4.39-4.37,4.38C262.54,61.42,235.44,61.45,207.75,61.45Z"/>
        <path class="cls-4" d="M241.74,21.75c-14.12,12-28,23.61-41.62,35.42-4.71,4.07-9.58,6.77-16.12,6.21-5.26-.45-10.59-.09-16.35-.09.81-2.87,3.16-4.07,4.93-5.46,13.52-10.66,27.08-21.28,41.56-30.65C225,20.18,232.62,18.78,241.74,21.75Z"/>
        <path class="cls-4" d="M309.62,59.52a29.8,29.8,0,0,0-3,0c-3.82.37-4.9-.71-3.83-4.82,1.88-7.17,3-14.53,4.32-21.84.37-2.11,1.07-3.68,3.37-3.33,11.84,1.79,24.35,1.78,33.21,11.9.55.62,1.17,1.19,1.67,1.85,4.78,6.44,3.85,9.52-4,11.52C331,57.49,320.32,58.63,309.62,59.52Z"/>
        <path class="cls-3" d="M468.51,43.89c-13.54-1-23.79-1.61-34-2.65-1.71-.17-5,.45-5.14-2.55-.13-2.84,2.26-4.13,4.87-4.81,13.47-3.51,27.26-5.27,41-7.38a9.37,9.37,0,0,1,1.5-.05c2.35.05,5.26-2.54,6.9.08s-.54,5.4-1.56,8C479,42.25,473.07,44.7,468.51,43.89Z"/>
        <path class="cls-5" d="M28.66,119.42c5-5.27,9.58-10.71,14.78-15.54a19.42,19.42,0,0,1,19.61-4.69c2.27.65,2.38,1.28,1.53,3.34-4.13,10-11.9,15.21-22.15,16.67C37.78,119.86,32.9,120.34,28.66,119.42Z"/>
        <path class="cls-3" d="M450,50.43c2.21.64,6.24-.15,6.61,2.45a15.84,15.84,0,0,1-2.57,10.84c-.81,1.2-2.47.86-3.75.59-2.9-.61-5.8-1.31-8.66-2.12-1.24-.35-2.77-.91-1.55-2.73a89,89,0,0,0,5.49-8.26C446.35,49.76,448.36,50.68,450,50.43Z"/>
        <path class="cls-1" d="M298.07,89.31c3.66,0,7.32.1,11,0,3.11-.11,5.45.94,5.56,4.23.1,3.13-1.92,4.85-5.09,4.87-7.82,0-15.64,0-23.46,0-3.06,0-3.92-1.87-4-4.55s.91-4.49,4-4.46c4,0,8,0,12,0Z"/>
        <path class="cls-1" d="M417.09,145.7c-.06,15.12-11.7,28.16-25.6,27.45-16.41-.83-27.11-12.26-27-27.53.09-16.46,10.53-28.1,26.43-28.19C406.18,117.34,417.14,129.27,417.09,145.7Zm-10.2,9.56c3.24-6.11,3.24-12.37.9-18.75-3.57-7.78-11.9-12.43-19.7-11-9.07,1.68-16.33,10.17-16.78,19.62-.4,8.47,6.3,16.92,15.52,19.57C395,167.07,402.23,163.68,406.89,155.26Z"/>
        <path class="cls-1" d="M105.31,148.08c-1-13,11.31-27.72,26.12-27.65a27.39,27.39,0,0,1,26.85,27c0,15.35-11.67,26.44-27.25,26.93C116.23,174.89,104.2,160.86,105.31,148.08Zm12.86-13.72.13-.18-1.15,1.17.16-.16-1.08,1.16.06-.09a2.43,2.43,0,0,0-1.19,2.08l.12-.17c-1,.39-.93,1.35-1.13,2.17l.18-.09c-2.75,4.53-2.42,9.24-.77,14,3.47,9.18,9.31,12.69,20.18,12.15a19,19,0,0,0,16.58-13.56,20,20,0,0,0-9.1-21.82c-7-4.37-15.39-3.56-21.89,2.11C118.91,133.55,118.54,134,118.17,134.36Z"/>
        <path class="cls-6" d="M406.89,155.26c-4.66,8.42-11.86,11.81-20.06,9.45-9.22-2.65-15.92-11.1-15.52-19.57.45-9.45,7.71-17.94,16.78-19.62,7.8-1.44,16.13,3.21,19.7,11C408.09,142.79,408.17,149.06,406.89,155.26Z"/>
        <path class="cls-5" d="M406.89,155.26c1.28-6.2,1.2-12.47.9-18.75C410.13,142.89,410.13,149.15,406.89,155.26Z"/>
        <path class="cls-6" d="M119.27,133.14c6.5-5.67,14.89-6.48,21.89-2.11a20,20,0,0,1,9.1,21.82,19,19,0,0,1-16.58,13.56c-10.87.54-16.71-3-20.18-12.15q.39-7,.77-14l-.18.09c1.16-.32,1.17-1.23,1.13-2.17l-.12.17c1.08-.3,1.08-1.22,1.19-2.08l-.06.09,1.08-1.16-.16.16,1.15-1.17-.13.18C118.54,134,118.91,133.55,119.27,133.14Z"/>
        <path class="cls-5" d="M114.27,140.25q-.39,7-.77,14C111.85,149.49,111.52,144.78,114.27,140.25Z"/>
        <path class="cls-5" d="M115.22,138.17c0,.94,0,1.85-1.13,2.17C114.29,139.52,114.22,138.56,115.22,138.17Z"/>
        <path class="cls-5" d="M116.29,136.26c-.11.86-.11,1.78-1.19,2.08A2.43,2.43,0,0,1,116.29,136.26Z"/>
        <path class="cls-5" d="M117.31,135.19l-1.08,1.16Z"/>
        <path class="cls-5" d="M118.3,134.18l-1.15,1.17Z"/>
        <path class="cls-5" d="M119.27,133.14c-.36.41-.73.81-1.1,1.22C118.54,134,118.91,133.55,119.27,133.14Z"/>
      </g>
    </g>
  </g>
</svg>
