<svg xmlns="http://www.w3.org/2000/svg" xmlns:xlink="http://www.w3.org/1999/xlink" width="1080" zoomAndPan="magnify" viewBox="0 0 810 1439.999935" height="1920" preserveAspectRatio="xMidYMid meet" version="1.0"><defs><clipPath id="e668143b56"><path d="M 28.21875 746 L 723.589844 746 L 723.589844 1077 L 28.21875 1077 Z M 28.21875 746 " clip-rule="nonzero"/></clipPath><clipPath id="ccdf6543ff"><path d="M 111 406.625 L 641 406.625 L 641 894 L 111 894 Z M 111 406.625 " clip-rule="nonzero"/></clipPath><clipPath id="d975421648"><path d="M 103 406.625 L 669 406.625 L 669 568 L 103 568 Z M 103 406.625 " clip-rule="nonzero"/></clipPath><clipPath id="11c5949ffc"><path d="M 103 406.625 L 669 406.625 L 669 568 L 103 568 Z M 103 406.625 " clip-rule="nonzero"/></clipPath><clipPath id="2df377fc55"><path d="M 143 231 L 691 231 L 691 466.128906 L 143 466.128906 Z M 143 231 " clip-rule="nonzero"/></clipPath><clipPath id="2f21963be6"><path d="M 626 414 L 679 414 L 679 466.128906 L 626 466.128906 Z M 626 414 " clip-rule="nonzero"/></clipPath><clipPath id="ef8de26742"><rect x="0" width="810" y="0" height="1077"/></clipPath></defs><g transform="matrix(1, 0, 0, 1, 0, 363)"><g clip-path="url(#ef8de26742)"><path fill="#fcc2ac" d="M 582.664062 631.84375 C 582.664062 633.0625 582.683594 634.28125 582.730469 635.5 C 582.773438 636.71875 582.84375 637.933594 582.933594 639.144531 C 583.023438 640.359375 583.136719 641.570312 583.269531 642.773438 C 583.40625 643.980469 583.5625 645.179688 583.742188 646.378906 C 583.921875 647.574219 584.125 648.761719 584.347656 649.945312 C 584.570312 651.128906 584.816406 652.300781 585.082031 653.46875 C 585.351562 654.636719 585.636719 655.792969 585.949219 656.941406 C 586.257812 658.089844 586.589844 659.226562 586.941406 660.351562 C 587.292969 661.480469 587.667969 662.59375 588.058594 663.695312 C 588.453125 664.796875 588.867188 665.886719 589.300781 666.960938 C 589.734375 668.035156 590.1875 669.097656 590.660156 670.144531 C 591.132812 671.1875 591.625 672.21875 592.136719 673.230469 C 592.648438 674.246094 593.179688 675.242188 593.726562 676.222656 C 594.273438 677.199219 594.839844 678.160156 595.421875 679.105469 C 596.007812 680.046875 596.609375 680.96875 597.226562 681.871094 C 597.84375 682.777344 598.476562 683.660156 599.128906 684.519531 C 599.78125 685.382812 600.445312 686.222656 601.128906 687.042969 C 601.808594 687.859375 602.507812 688.65625 603.21875 689.429688 C 603.929688 690.203125 604.652344 690.953125 605.390625 691.679688 C 606.132812 692.40625 606.882812 693.109375 607.648438 693.785156 C 608.414062 694.460938 609.191406 695.113281 609.980469 695.742188 C 610.769531 696.367188 611.570312 696.96875 612.382812 697.542969 C 613.191406 698.117188 614.015625 698.667969 614.847656 699.1875 C 615.679688 699.710938 616.519531 700.203125 617.367188 700.667969 C 618.21875 701.136719 619.078125 701.574219 619.945312 701.984375 C 620.808594 702.394531 621.683594 702.777344 622.5625 703.132812 C 623.445312 703.488281 624.332031 703.8125 625.222656 704.109375 C 626.117188 704.402344 627.011719 704.671875 627.914062 704.910156 C 628.816406 705.148438 629.722656 705.355469 630.632812 705.535156 C 631.542969 705.710938 632.457031 705.863281 633.375 705.980469 C 634.289062 706.101562 635.207031 706.191406 636.125 706.25 C 637.042969 706.308594 637.964844 706.339844 638.882812 706.339844 C 639.804688 706.339844 640.722656 706.308594 641.644531 706.25 C 642.5625 706.191406 643.480469 706.101562 644.394531 705.980469 C 645.3125 705.863281 646.222656 705.710938 647.132812 705.535156 C 648.042969 705.355469 648.949219 705.148438 649.851562 704.910156 C 650.753906 704.671875 651.652344 704.402344 652.546875 704.109375 C 653.4375 703.8125 654.324219 703.488281 655.203125 703.132812 C 656.085938 702.777344 656.957031 702.394531 657.824219 701.984375 C 658.691406 701.574219 659.550781 701.136719 660.398438 700.667969 C 661.25 700.203125 662.089844 699.710938 662.921875 699.1875 C 663.753906 698.667969 664.574219 698.117188 665.386719 697.542969 C 666.199219 696.96875 667 696.367188 667.789062 695.742188 C 668.578125 695.113281 669.355469 694.460938 670.121094 693.785156 C 670.882812 693.109375 671.636719 692.40625 672.375 691.679688 C 673.113281 690.953125 673.839844 690.203125 674.550781 689.429688 C 675.261719 688.65625 675.957031 687.859375 676.640625 687.042969 C 677.324219 686.222656 677.988281 685.382812 678.640625 684.519531 C 679.289062 683.660156 679.925781 682.777344 680.542969 681.871094 C 681.160156 680.96875 681.761719 680.046875 682.34375 679.105469 C 682.929688 678.160156 683.492188 677.199219 684.042969 676.222656 C 684.589844 675.242188 685.121094 674.246094 685.632812 673.230469 C 686.140625 672.21875 686.632812 671.1875 687.105469 670.144531 C 687.582031 669.097656 688.035156 668.035156 688.46875 666.960938 C 688.902344 665.886719 689.316406 664.796875 689.707031 663.695312 C 690.101562 662.59375 690.472656 661.480469 690.828125 660.351562 C 691.179688 659.226562 691.511719 658.089844 691.820312 656.941406 C 692.128906 655.792969 692.417969 654.636719 692.683594 653.46875 C 692.953125 652.300781 693.199219 651.128906 693.421875 649.945312 C 693.644531 648.761719 693.847656 647.574219 694.027344 646.378906 C 694.207031 645.179688 694.363281 643.980469 694.496094 642.773438 C 694.632812 641.570312 694.746094 640.359375 694.835938 639.144531 C 694.925781 637.933594 694.992188 636.71875 695.039062 635.5 C 695.082031 634.28125 695.105469 633.0625 695.105469 631.84375 C 695.105469 630.625 695.082031 629.40625 695.039062 628.1875 C 694.992188 626.972656 694.925781 625.753906 694.835938 624.542969 C 694.746094 623.328125 694.632812 622.117188 694.496094 620.914062 C 694.363281 619.707031 694.207031 618.507812 694.027344 617.308594 C 693.847656 616.113281 693.644531 614.925781 693.421875 613.742188 C 693.199219 612.558594 692.953125 611.386719 692.683594 610.21875 C 692.417969 609.050781 692.128906 607.894531 691.820312 606.746094 C 691.511719 605.597656 691.179688 604.460938 690.828125 603.335938 C 690.472656 602.207031 690.101562 601.09375 689.707031 599.992188 C 689.316406 598.890625 688.902344 597.800781 688.46875 596.726562 C 688.035156 595.652344 687.582031 594.589844 687.105469 593.546875 C 686.632812 592.5 686.140625 591.46875 685.632812 590.457031 C 685.121094 589.441406 684.589844 588.445312 684.042969 587.464844 C 683.492188 586.488281 682.929688 585.527344 682.34375 584.582031 C 681.761719 583.640625 681.160156 582.71875 680.542969 581.816406 C 679.925781 580.910156 679.289062 580.027344 678.640625 579.167969 C 677.988281 578.304688 677.324219 577.464844 676.640625 576.644531 C 675.957031 575.828125 675.261719 575.03125 674.550781 574.257812 C 673.839844 573.484375 673.113281 572.734375 672.375 572.007812 C 671.636719 571.28125 670.882812 570.578125 670.121094 569.902344 C 669.355469 569.226562 668.578125 568.574219 667.789062 567.945312 C 667 567.320312 666.199219 566.71875 665.386719 566.144531 C 664.574219 565.570312 663.753906 565.019531 662.921875 564.5 C 662.089844 563.980469 661.25 563.484375 660.398438 563.019531 C 659.550781 562.550781 658.691406 562.113281 657.824219 561.703125 C 656.957031 561.292969 656.085938 560.910156 655.203125 560.554688 C 654.324219 560.203125 653.4375 559.875 652.542969 559.578125 C 651.652344 559.285156 650.753906 559.015625 649.851562 558.777344 C 648.949219 558.539062 648.042969 558.332031 647.132812 558.152344 C 646.222656 557.976562 645.3125 557.824219 644.394531 557.707031 C 643.480469 557.585938 642.5625 557.496094 641.644531 557.4375 C 640.722656 557.378906 639.804688 557.347656 638.882812 557.347656 C 637.964844 557.347656 637.042969 557.378906 636.125 557.4375 C 635.207031 557.496094 634.289062 557.585938 633.375 557.707031 C 632.457031 557.824219 631.542969 557.976562 630.632812 558.152344 C 629.722656 558.332031 628.816406 558.542969 627.914062 558.777344 C 627.011719 559.015625 626.117188 559.285156 625.222656 559.578125 C 624.332031 559.875 623.445312 560.203125 622.5625 560.554688 C 621.683594 560.910156 620.808594 561.292969 619.945312 561.703125 C 619.078125 562.113281 618.21875 562.550781 617.367188 563.019531 C 616.519531 563.484375 615.679688 563.980469 614.847656 564.5 C 614.015625 565.019531 613.191406 565.570312 612.382812 566.144531 C 611.570312 566.71875 610.769531 567.320312 609.980469 567.945312 C 609.191406 568.574219 608.414062 569.226562 607.648438 569.902344 C 606.882812 570.578125 606.132812 571.28125 605.394531 572.007812 C 604.652344 572.734375 603.929688 573.484375 603.21875 574.257812 C 602.507812 575.03125 601.808594 575.828125 601.128906 576.644531 C 600.445312 577.464844 599.78125 578.304688 599.128906 579.167969 C 598.480469 580.027344 597.84375 580.910156 597.226562 581.816406 C 596.609375 582.71875 596.007812 583.640625 595.425781 584.582031 C 594.839844 585.527344 594.273438 586.488281 593.726562 587.464844 C 593.179688 588.445312 592.648438 589.441406 592.136719 590.457031 C 591.625 591.46875 591.132812 592.5 590.660156 593.546875 C 590.1875 594.589844 589.734375 595.652344 589.300781 596.726562 C 588.867188 597.800781 588.453125 598.890625 588.058594 599.992188 C 587.667969 601.09375 587.292969 602.207031 586.941406 603.335938 C 586.589844 604.460938 586.257812 605.597656 585.949219 606.746094 C 585.636719 607.894531 585.351562 609.050781 585.082031 610.21875 C 584.816406 611.386719 584.570312 612.558594 584.347656 613.742188 C 584.125 614.925781 583.921875 616.113281 583.742188 617.308594 C 583.5625 618.507812 583.40625 619.707031 583.269531 620.914062 C 583.136719 622.117188 583.023438 623.328125 582.933594 624.542969 C 582.84375 625.753906 582.773438 626.972656 582.730469 628.1875 C 582.683594 629.40625 582.664062 630.625 582.664062 631.84375 Z M 582.664062 631.84375 " fill-opacity="1" fill-rule="evenodd"/><path fill="#f3b493" d="M 658.5625 602.375 L 655.585938 605.023438 C 667.996094 619.003906 670.574219 629.25 668.816406 637.953125 C 667.058594 646.652344 660.632812 654.207031 653.914062 661.992188 L 656.925781 664.601562 C 663.640625 656.820312 670.6875 648.820312 672.722656 638.738281 C 674.757812 628.660156 671.445312 616.886719 658.5625 602.375 Z M 658.5625 602.375 " fill-opacity="1" fill-rule="nonzero"/><path fill="#fcc2ac" d="M 170.917969 631.84375 C 170.917969 633.0625 170.894531 634.28125 170.851562 635.5 C 170.804688 636.71875 170.738281 637.933594 170.648438 639.144531 C 170.558594 640.359375 170.445312 641.570312 170.308594 642.773438 C 170.175781 643.980469 170.015625 645.179688 169.835938 646.378906 C 169.660156 647.574219 169.457031 648.761719 169.234375 649.945312 C 169.007812 651.128906 168.765625 652.300781 168.496094 653.46875 C 168.230469 654.636719 167.941406 655.792969 167.632812 656.941406 C 167.320312 658.089844 166.992188 659.226562 166.636719 660.351562 C 166.285156 661.480469 165.914062 662.59375 165.519531 663.695312 C 165.125 664.796875 164.714844 665.886719 164.28125 666.960938 C 163.84375 668.035156 163.390625 669.097656 162.917969 670.144531 C 162.445312 671.1875 161.953125 672.21875 161.441406 673.230469 C 160.933594 674.246094 160.402344 675.242188 159.855469 676.222656 C 159.304688 677.199219 158.738281 678.160156 158.15625 679.105469 C 157.574219 680.046875 156.972656 680.96875 156.355469 681.871094 C 155.734375 682.777344 155.101562 683.660156 154.449219 684.519531 C 153.800781 685.382812 153.132812 686.222656 152.453125 687.042969 C 151.769531 687.859375 151.074219 688.65625 150.363281 689.429688 C 149.652344 690.203125 148.925781 690.953125 148.1875 691.679688 C 147.449219 692.40625 146.695312 693.109375 145.929688 693.785156 C 145.167969 694.460938 144.390625 695.113281 143.601562 695.742188 C 142.8125 696.367188 142.011719 696.96875 141.199219 697.542969 C 140.386719 698.117188 139.566406 698.667969 138.734375 699.1875 C 137.902344 699.710938 137.0625 700.203125 136.210938 700.667969 C 135.359375 701.136719 134.503906 701.574219 133.636719 701.984375 C 132.769531 702.394531 131.898438 702.777344 131.015625 703.132812 C 130.136719 703.488281 129.25 703.8125 128.355469 704.109375 C 127.464844 704.402344 126.566406 704.671875 125.664062 704.910156 C 124.761719 705.148438 123.855469 705.355469 122.945312 705.535156 C 122.035156 705.710938 121.121094 705.863281 120.207031 705.980469 C 119.292969 706.101562 118.375 706.191406 117.453125 706.25 C 116.535156 706.308594 115.617188 706.339844 114.695312 706.339844 C 113.777344 706.339844 112.855469 706.308594 111.9375 706.25 C 111.019531 706.191406 110.101562 706.101562 109.183594 705.980469 C 108.269531 705.863281 107.355469 705.714844 106.445312 705.535156 C 105.535156 705.355469 104.628906 705.148438 103.726562 704.910156 C 102.824219 704.671875 101.925781 704.402344 101.035156 704.109375 C 100.144531 703.8125 99.257812 703.488281 98.375 703.132812 C 97.496094 702.777344 96.621094 702.394531 95.753906 701.984375 C 94.890625 701.574219 94.03125 701.136719 93.179688 700.667969 C 92.332031 700.203125 91.488281 699.710938 90.65625 699.1875 C 89.828125 698.667969 89.003906 698.117188 88.191406 697.542969 C 87.382812 696.96875 86.582031 696.367188 85.792969 695.742188 C 85.003906 695.113281 84.226562 694.460938 83.460938 693.785156 C 82.695312 693.109375 81.945312 692.40625 81.203125 691.679688 C 80.464844 690.953125 79.742188 690.203125 79.027344 689.429688 C 78.316406 688.65625 77.621094 687.859375 76.941406 687.042969 C 76.257812 686.222656 75.589844 685.382812 74.941406 684.519531 C 74.289062 683.660156 73.65625 682.777344 73.039062 681.871094 C 72.421875 680.96875 71.820312 680.046875 71.234375 679.105469 C 70.652344 678.160156 70.085938 677.199219 69.539062 676.222656 C 68.988281 675.242188 68.460938 674.246094 67.949219 673.230469 C 67.4375 672.21875 66.945312 671.1875 66.472656 670.144531 C 66 669.097656 65.546875 668.035156 65.113281 666.960938 C 64.679688 665.886719 64.265625 664.796875 63.871094 663.695312 C 63.476562 662.59375 63.105469 661.480469 62.753906 660.351562 C 62.402344 659.226562 62.070312 658.089844 61.761719 656.941406 C 61.449219 655.792969 61.160156 654.636719 60.894531 653.46875 C 60.628906 652.300781 60.382812 651.128906 60.160156 649.945312 C 59.933594 648.761719 59.734375 647.574219 59.554688 646.378906 C 59.375 645.179688 59.21875 643.980469 59.082031 642.773438 C 58.949219 641.570312 58.835938 640.359375 58.746094 639.144531 C 58.65625 637.933594 58.585938 636.71875 58.542969 635.5 C 58.496094 634.28125 58.472656 633.0625 58.472656 631.84375 C 58.472656 630.625 58.496094 629.40625 58.542969 628.1875 C 58.585938 626.972656 58.65625 625.753906 58.746094 624.542969 C 58.835938 623.328125 58.949219 622.117188 59.082031 620.914062 C 59.21875 619.707031 59.375 618.507812 59.554688 617.308594 C 59.734375 616.113281 59.933594 614.925781 60.160156 613.742188 C 60.382812 612.558594 60.628906 611.386719 60.894531 610.21875 C 61.160156 609.050781 61.449219 607.894531 61.761719 606.746094 C 62.070312 605.597656 62.402344 604.460938 62.753906 603.335938 C 63.105469 602.207031 63.476562 601.09375 63.871094 599.992188 C 64.265625 598.890625 64.679688 597.800781 65.113281 596.726562 C 65.546875 595.652344 66 594.589844 66.472656 593.546875 C 66.945312 592.5 67.4375 591.46875 67.949219 590.457031 C 68.460938 589.441406 68.988281 588.445312 69.539062 587.464844 C 70.085938 586.488281 70.652344 585.527344 71.234375 584.582031 C 71.820312 583.640625 72.421875 582.71875 73.039062 581.816406 C 73.65625 580.910156 74.289062 580.027344 74.941406 579.167969 C 75.589844 578.304688 76.257812 577.464844 76.941406 576.644531 C 77.621094 575.828125 78.316406 575.03125 79.027344 574.257812 C 79.742188 573.484375 80.464844 572.734375 81.203125 572.007812 C 81.945312 571.28125 82.695312 570.578125 83.460938 569.902344 C 84.226562 569.226562 85.003906 568.574219 85.792969 567.945312 C 86.582031 567.320312 87.382812 566.71875 88.191406 566.144531 C 89.003906 565.570312 89.828125 565.019531 90.65625 564.5 C 91.488281 563.980469 92.332031 563.484375 93.179688 563.019531 C 94.03125 562.550781 94.890625 562.113281 95.753906 561.703125 C 96.621094 561.292969 97.496094 560.910156 98.375 560.554688 C 99.257812 560.203125 100.144531 559.875 101.035156 559.578125 C 101.925781 559.285156 102.824219 559.015625 103.726562 558.777344 C 104.628906 558.542969 105.535156 558.332031 106.445312 558.152344 C 107.355469 557.976562 108.269531 557.824219 109.183594 557.707031 C 110.101562 557.585938 111.019531 557.496094 111.9375 557.4375 C 112.855469 557.378906 113.777344 557.347656 114.695312 557.347656 C 115.617188 557.347656 116.535156 557.378906 117.453125 557.4375 C 118.375 557.496094 119.292969 557.585938 120.207031 557.707031 C 121.121094 557.824219 122.035156 557.976562 122.945312 558.152344 C 123.855469 558.332031 124.761719 558.539062 125.664062 558.777344 C 126.566406 559.015625 127.464844 559.285156 128.355469 559.578125 C 129.25 559.875 130.136719 560.203125 131.015625 560.554688 C 131.898438 560.910156 132.769531 561.292969 133.636719 561.703125 C 134.503906 562.113281 135.359375 562.550781 136.210938 563.019531 C 137.0625 563.484375 137.902344 563.980469 138.734375 564.5 C 139.566406 565.019531 140.386719 565.570312 141.199219 566.144531 C 142.011719 566.71875 142.8125 567.320312 143.601562 567.945312 C 144.390625 568.574219 145.167969 569.226562 145.929688 569.902344 C 146.695312 570.578125 147.449219 571.28125 148.1875 572.007812 C 148.925781 572.734375 149.652344 573.484375 150.363281 574.257812 C 151.074219 575.03125 151.769531 575.828125 152.453125 576.644531 C 153.132812 577.464844 153.800781 578.304688 154.449219 579.167969 C 155.101562 580.027344 155.734375 580.910156 156.355469 581.816406 C 156.972656 582.71875 157.574219 583.640625 158.15625 584.582031 C 158.738281 585.527344 159.304688 586.488281 159.855469 587.464844 C 160.402344 588.445312 160.933594 589.441406 161.441406 590.457031 C 161.953125 591.46875 162.445312 592.5 162.917969 593.546875 C 163.390625 594.589844 163.84375 595.652344 164.28125 596.726562 C 164.714844 597.800781 165.125 598.890625 165.519531 599.992188 C 165.914062 601.09375 166.285156 602.207031 166.636719 603.335938 C 166.992188 604.460938 167.320312 605.597656 167.632812 606.746094 C 167.941406 607.894531 168.230469 609.050781 168.496094 610.21875 C 168.765625 611.386719 169.007812 612.558594 169.234375 613.742188 C 169.457031 614.925781 169.660156 616.113281 169.835938 617.308594 C 170.015625 618.507812 170.175781 619.707031 170.308594 620.914062 C 170.445312 622.117188 170.558594 623.328125 170.648438 624.542969 C 170.738281 625.753906 170.804688 626.972656 170.851562 628.1875 C 170.894531 629.40625 170.917969 630.625 170.917969 631.84375 Z M 170.917969 631.84375 " fill-opacity="1" fill-rule="evenodd"/><g clip-path="url(#e668143b56)"><path fill="#ff7f2a" d="M 375.835938 746.074219 C 282.777344 746.121094 197.636719 784.40625 134.765625 847.246094 C 75.941406 906.042969 36.613281 986.335938 28.527344 1076.929688 L 723.300781 1076.929688 C 706.566406 889.441406 556.015625 746.085938 375.835938 746.074219 Z M 375.835938 746.074219 " fill-opacity="1" fill-rule="evenodd"/></g><path fill="#aa4400" d="M 375.914062 881.847656 C 375.914062 881.847656 316.691406 946.710938 284.550781 952.082031 C 232.558594 960.769531 189.433594 828.488281 189.433594 828.488281 C 217.210938 781.699219 209.269531 805.328125 249.929688 778.832031 Z M 375.914062 881.847656 " fill-opacity="1" fill-rule="nonzero"/><path fill="#aa4400" d="M 375.914062 881.847656 C 375.914062 881.847656 435.136719 946.710938 467.277344 952.082031 C 519.269531 960.769531 562.390625 828.488281 562.390625 828.488281 C 534.613281 781.699219 542.554688 805.328125 501.894531 778.832031 Z M 375.914062 881.847656 " fill-opacity="1" fill-rule="nonzero"/><g clip-path="url(#ccdf6543ff)"><path fill="#fcc2ac" d="M 640.605469 593.878906 C 640.605469 759.382812 530.898438 893.550781 375.914062 893.550781 C 220.929688 893.550781 111.222656 759.382812 111.222656 593.878906 C 111.222656 428.375 220.929688 294.207031 375.914062 294.207031 C 530.898438 294.207031 640.605469 428.375 640.605469 593.878906 Z M 640.605469 593.878906 " fill-opacity="1" fill-rule="evenodd"/></g><path fill="#000000" d="M 395.316406 687.914062 C 394.289062 697.480469 395.070312 707.277344 390.726562 714.015625 C 388.550781 717.382812 385.148438 720.164062 379.191406 722.054688 C 373.230469 723.945312 364.726562 724.855469 352.757812 724.214844 L 352.546875 728.195312 C 364.8125 728.851562 373.75 727.964844 380.394531 725.859375 C 387.035156 723.75 391.390625 720.332031 394.074219 716.179688 C 399.433594 707.867188 398.3125 697.332031 399.277344 688.34375 Z M 395.316406 687.914062 " fill-opacity="1" fill-rule="nonzero"/><path fill="#000000" d="M 283.976562 619.632812 C 283.976562 621.011719 283.945312 622.390625 283.875 623.761719 C 283.808594 625.136719 283.707031 626.5 283.574219 627.855469 C 283.4375 629.207031 283.273438 630.542969 283.070312 631.867188 C 282.871094 633.1875 282.640625 634.484375 282.375 635.757812 C 282.113281 637.035156 281.816406 638.28125 281.492188 639.496094 C 281.167969 640.714844 280.8125 641.898438 280.429688 643.042969 C 280.046875 644.191406 279.636719 645.300781 279.199219 646.367188 C 278.761719 647.433594 278.300781 648.453125 277.8125 649.429688 C 277.328125 650.40625 276.816406 651.332031 276.285156 652.207031 C 275.75 653.082031 275.199219 653.90625 274.625 654.671875 C 274.050781 655.4375 273.460938 656.148438 272.851562 656.796875 C 272.246094 657.449219 271.621094 658.039062 270.984375 658.566406 C 270.347656 659.09375 269.699219 659.558594 269.039062 659.960938 C 268.382812 660.359375 267.714844 660.695312 267.039062 660.964844 C 266.359375 661.234375 265.679688 661.4375 264.996094 661.570312 C 264.308594 661.707031 263.621094 661.773438 262.929688 661.773438 C 262.242188 661.773438 261.554688 661.707031 260.867188 661.570312 C 260.183594 661.4375 259.5 661.234375 258.824219 660.964844 C 258.148438 660.695312 257.480469 660.359375 256.820312 659.960938 C 256.160156 659.558594 255.515625 659.09375 254.878906 658.566406 C 254.238281 658.039062 253.617188 657.449219 253.011719 656.796875 C 252.402344 656.148438 251.8125 655.4375 251.238281 654.671875 C 250.664062 653.90625 250.113281 653.082031 249.578125 652.207031 C 249.046875 651.332031 248.535156 650.40625 248.050781 649.429688 C 247.5625 648.453125 247.097656 647.433594 246.660156 646.367188 C 246.226562 645.300781 245.816406 644.191406 245.429688 643.042969 C 245.046875 641.898438 244.695312 640.714844 244.371094 639.496094 C 244.042969 638.28125 243.75 637.035156 243.488281 635.757812 C 243.222656 634.484375 242.992188 633.1875 242.789062 631.867188 C 242.589844 630.542969 242.421875 629.207031 242.289062 627.855469 C 242.15625 626.5 242.054688 625.136719 241.984375 623.761719 C 241.917969 622.390625 241.882812 621.011719 241.882812 619.632812 C 241.882812 618.253906 241.917969 616.875 241.984375 615.5 C 242.054688 614.128906 242.15625 612.765625 242.289062 611.410156 C 242.421875 610.058594 242.589844 608.71875 242.789062 607.398438 C 242.992188 606.078125 243.222656 604.78125 243.488281 603.503906 C 243.75 602.230469 244.042969 600.984375 244.371094 599.765625 C 244.695312 598.550781 245.046875 597.367188 245.429688 596.21875 C 245.816406 595.070312 246.226562 593.964844 246.660156 592.898438 C 247.097656 591.832031 247.5625 590.808594 248.050781 589.832031 C 248.535156 588.859375 249.046875 587.933594 249.578125 587.054688 C 250.113281 586.179688 250.664062 585.359375 251.238281 584.59375 C 251.8125 583.824219 252.402344 583.117188 253.011719 582.46875 C 253.617188 581.816406 254.242188 581.226562 254.878906 580.699219 C 255.515625 580.171875 256.164062 579.707031 256.820312 579.304688 C 257.480469 578.90625 258.148438 578.570312 258.824219 578.300781 C 259.5 578.03125 260.183594 577.828125 260.867188 577.695312 C 261.554688 577.558594 262.242188 577.492188 262.929688 577.492188 C 263.621094 577.492188 264.308594 577.558594 264.996094 577.695312 C 265.679688 577.828125 266.359375 578.03125 267.039062 578.300781 C 267.714844 578.570312 268.382812 578.90625 269.039062 579.304688 C 269.699219 579.707031 270.347656 580.171875 270.984375 580.699219 C 271.621094 581.226562 272.246094 581.816406 272.851562 582.46875 C 273.460938 583.117188 274.050781 583.824219 274.625 584.59375 C 275.199219 585.359375 275.75 586.179688 276.285156 587.054688 C 276.816406 587.933594 277.328125 588.859375 277.8125 589.832031 C 278.300781 590.808594 278.761719 591.832031 279.199219 592.898438 C 279.636719 593.964844 280.046875 595.070312 280.429688 596.21875 C 280.8125 597.367188 281.167969 598.550781 281.492188 599.765625 C 281.816406 600.984375 282.113281 602.230469 282.375 603.503906 C 282.640625 604.78125 282.871094 606.078125 283.070312 607.398438 C 283.273438 608.71875 283.4375 610.058594 283.574219 611.410156 C 283.707031 612.765625 283.808594 614.128906 283.875 615.5 C 283.945312 616.875 283.976562 618.253906 283.976562 619.632812 Z M 283.976562 619.632812 " fill-opacity="1" fill-rule="evenodd"/><path fill="#ffffff" d="M 273.230469 600.664062 C 273.230469 601.46875 273.1875 602.261719 273.109375 603.046875 C 273.027344 603.835938 272.910156 604.597656 272.75 605.339844 C 272.59375 606.082031 272.398438 606.785156 272.167969 607.453125 C 271.941406 608.117188 271.679688 608.734375 271.386719 609.300781 C 271.09375 609.867188 270.777344 610.375 270.433594 610.820312 C 270.089844 611.265625 269.730469 611.644531 269.347656 611.949219 C 268.964844 612.257812 268.574219 612.488281 268.167969 612.644531 C 267.761719 612.800781 267.355469 612.878906 266.941406 612.878906 C 266.527344 612.878906 266.117188 612.800781 265.714844 612.644531 C 265.308594 612.488281 264.914062 612.257812 264.535156 611.949219 C 264.152344 611.644531 263.789062 611.265625 263.445312 610.820312 C 263.101562 610.375 262.785156 609.867188 262.492188 609.300781 C 262.203125 608.734375 261.941406 608.117188 261.710938 607.453125 C 261.480469 606.785156 261.289062 606.082031 261.128906 605.339844 C 260.972656 604.597656 260.851562 603.835938 260.773438 603.046875 C 260.691406 602.261719 260.652344 601.46875 260.652344 600.664062 C 260.652344 599.863281 260.691406 599.070312 260.773438 598.28125 C 260.851562 597.496094 260.972656 596.734375 261.128906 595.992188 C 261.289062 595.25 261.480469 594.546875 261.710938 593.878906 C 261.941406 593.214844 262.203125 592.597656 262.492188 592.03125 C 262.785156 591.460938 263.101562 590.957031 263.445312 590.511719 C 263.789062 590.066406 264.152344 589.6875 264.535156 589.382812 C 264.914062 589.074219 265.308594 588.84375 265.714844 588.6875 C 266.117188 588.53125 266.527344 588.453125 266.941406 588.453125 C 267.355469 588.453125 267.761719 588.53125 268.167969 588.6875 C 268.574219 588.84375 268.964844 589.074219 269.347656 589.382812 C 269.730469 589.6875 270.089844 590.066406 270.433594 590.511719 C 270.777344 590.957031 271.09375 591.460938 271.386719 592.03125 C 271.679688 592.597656 271.941406 593.214844 272.167969 593.878906 C 272.398438 594.546875 272.59375 595.25 272.75 595.992188 C 272.910156 596.734375 273.027344 597.496094 273.109375 598.28125 C 273.1875 599.070312 273.230469 599.863281 273.230469 600.664062 Z M 273.230469 600.664062 " fill-opacity="1" fill-rule="evenodd"/><path fill="#e6e6e6" d="M 256.792969 524.335938 C 236.292969 526.539062 225.050781 535.589844 202.894531 553.503906 L 202.394531 564.632812 C 243.230469 531.621094 274.964844 534.0625 311.21875 547.53125 L 316.453125 533.402344 C 297.085938 526.207031 277.292969 522.128906 256.792969 524.335938 Z M 256.792969 524.335938 " fill-opacity="1" fill-rule="nonzero"/><path fill="#e6e6e6" d="M 495.035156 524.335938 C 515.535156 526.539062 526.777344 535.589844 548.933594 553.503906 L 549.433594 564.632812 C 508.597656 531.621094 476.863281 534.0625 440.609375 547.53125 L 435.375 533.402344 C 454.742188 526.207031 474.535156 522.128906 495.035156 524.335938 Z M 495.035156 524.335938 " fill-opacity="1" fill-rule="nonzero"/><path fill="#000000" d="M 513.449219 619.632812 C 513.449219 621.011719 513.414062 622.390625 513.347656 623.761719 C 513.28125 625.136719 513.179688 626.5 513.046875 627.855469 C 512.910156 629.207031 512.742188 630.542969 512.542969 631.867188 C 512.34375 633.1875 512.113281 634.484375 511.847656 635.757812 C 511.582031 637.035156 511.289062 638.28125 510.964844 639.496094 C 510.640625 640.714844 510.285156 641.898438 509.902344 643.046875 C 509.519531 644.191406 509.109375 645.300781 508.671875 646.367188 C 508.234375 647.433594 507.773438 648.453125 507.285156 649.429688 C 506.796875 650.40625 506.289062 651.332031 505.753906 652.207031 C 505.222656 653.082031 504.667969 653.90625 504.097656 654.671875 C 503.523438 655.4375 502.933594 656.148438 502.324219 656.796875 C 501.714844 657.449219 501.09375 658.039062 500.457031 658.566406 C 499.820312 659.09375 499.171875 659.558594 498.511719 659.960938 C 497.851562 660.359375 497.183594 660.695312 496.507812 660.964844 C 495.832031 661.234375 495.152344 661.4375 494.464844 661.570312 C 493.78125 661.707031 493.09375 661.773438 492.402344 661.773438 C 491.714844 661.773438 491.027344 661.707031 490.339844 661.570312 C 489.652344 661.4375 488.972656 661.234375 488.296875 660.964844 C 487.621094 660.695312 486.953125 660.359375 486.292969 659.960938 C 485.632812 659.558594 484.984375 659.09375 484.347656 658.566406 C 483.710938 658.039062 483.089844 657.449219 482.480469 656.796875 C 481.875 656.148438 481.28125 655.4375 480.710938 654.671875 C 480.136719 653.90625 479.582031 653.082031 479.050781 652.207031 C 478.519531 651.332031 478.007812 650.40625 477.519531 649.429688 C 477.035156 648.453125 476.570312 647.433594 476.132812 646.367188 C 475.695312 645.300781 475.285156 644.191406 474.902344 643.042969 C 474.519531 641.898438 474.167969 640.714844 473.839844 639.496094 C 473.515625 638.28125 473.222656 637.035156 472.957031 635.757812 C 472.695312 634.484375 472.460938 633.1875 472.261719 631.867188 C 472.0625 630.542969 471.894531 629.207031 471.761719 627.855469 C 471.625 626.5 471.523438 625.136719 471.457031 623.761719 C 471.390625 622.390625 471.355469 621.011719 471.355469 619.632812 C 471.355469 618.253906 471.390625 616.875 471.457031 615.5 C 471.523438 614.128906 471.625 612.765625 471.761719 611.410156 C 471.894531 610.058594 472.0625 608.71875 472.261719 607.398438 C 472.460938 606.078125 472.695312 604.78125 472.957031 603.503906 C 473.222656 602.230469 473.515625 600.984375 473.839844 599.765625 C 474.167969 598.550781 474.519531 597.367188 474.902344 596.21875 C 475.285156 595.070312 475.695312 593.964844 476.132812 592.898438 C 476.570312 591.832031 477.035156 590.808594 477.519531 589.832031 C 478.007812 588.859375 478.519531 587.933594 479.050781 587.054688 C 479.582031 586.179688 480.136719 585.359375 480.710938 584.59375 C 481.28125 583.824219 481.875 583.117188 482.480469 582.46875 C 483.089844 581.816406 483.710938 581.226562 484.347656 580.699219 C 484.984375 580.171875 485.632812 579.707031 486.292969 579.304688 C 486.953125 578.90625 487.621094 578.570312 488.296875 578.300781 C 488.972656 578.03125 489.652344 577.828125 490.339844 577.695312 C 491.027344 577.558594 491.714844 577.492188 492.402344 577.492188 C 493.09375 577.492188 493.78125 577.558594 494.464844 577.695312 C 495.152344 577.828125 495.832031 578.03125 496.507812 578.300781 C 497.183594 578.570312 497.851562 578.90625 498.511719 579.304688 C 499.171875 579.707031 499.820312 580.171875 500.457031 580.699219 C 501.09375 581.226562 501.714844 581.816406 502.324219 582.46875 C 502.933594 583.117188 503.523438 583.824219 504.097656 584.59375 C 504.667969 585.359375 505.222656 586.179688 505.753906 587.054688 C 506.289062 587.933594 506.796875 588.859375 507.285156 589.832031 C 507.773438 590.808594 508.234375 591.832031 508.671875 592.898438 C 509.109375 593.964844 509.519531 595.070312 509.902344 596.21875 C 510.285156 597.367188 510.640625 598.550781 510.964844 599.765625 C 511.289062 600.984375 511.582031 602.230469 511.847656 603.503906 C 512.113281 604.78125 512.34375 606.078125 512.542969 607.398438 C 512.742188 608.71875 512.910156 610.058594 513.046875 611.410156 C 513.179688 612.765625 513.28125 614.128906 513.347656 615.5 C 513.414062 616.875 513.449219 618.253906 513.449219 619.632812 Z M 513.449219 619.632812 " fill-opacity="1" fill-rule="evenodd"/><path fill="#ffffff" d="M 502.703125 600.664062 C 502.703125 601.46875 502.660156 602.261719 502.582031 603.046875 C 502.5 603.835938 502.378906 604.597656 502.222656 605.339844 C 502.066406 606.082031 501.871094 606.785156 501.640625 607.453125 C 501.410156 608.117188 501.152344 608.734375 500.859375 609.300781 C 500.566406 609.867188 500.25 610.375 499.90625 610.820312 C 499.5625 611.265625 499.199219 611.644531 498.820312 611.949219 C 498.4375 612.257812 498.042969 612.488281 497.640625 612.644531 C 497.234375 612.800781 496.824219 612.878906 496.414062 612.878906 C 496 612.878906 495.589844 612.800781 495.183594 612.644531 C 494.78125 612.488281 494.386719 612.257812 494.003906 611.949219 C 493.625 611.644531 493.261719 611.265625 492.917969 610.820312 C 492.574219 610.375 492.257812 609.867188 491.964844 609.300781 C 491.671875 608.734375 491.414062 608.117188 491.183594 607.453125 C 490.953125 606.785156 490.757812 606.082031 490.601562 605.339844 C 490.445312 604.597656 490.324219 603.835938 490.242188 603.046875 C 490.164062 602.261719 490.125 601.46875 490.125 600.664062 C 490.125 599.863281 490.164062 599.070312 490.242188 598.28125 C 490.324219 597.496094 490.445312 596.734375 490.601562 595.992188 C 490.761719 595.25 490.953125 594.546875 491.183594 593.878906 C 491.414062 593.214844 491.671875 592.597656 491.964844 592.03125 C 492.257812 591.460938 492.574219 590.957031 492.917969 590.511719 C 493.261719 590.066406 493.625 589.6875 494.003906 589.382812 C 494.386719 589.074219 494.78125 588.84375 495.183594 588.6875 C 495.589844 588.53125 496 588.453125 496.414062 588.453125 C 496.824219 588.453125 497.234375 588.53125 497.640625 588.6875 C 498.042969 588.84375 498.4375 589.074219 498.820312 589.382812 C 499.199219 589.6875 499.5625 590.066406 499.90625 590.511719 C 500.25 590.957031 500.566406 591.460938 500.859375 592.03125 C 501.152344 592.597656 501.410156 593.214844 501.640625 593.878906 C 501.871094 594.546875 502.066406 595.25 502.222656 595.992188 C 502.378906 596.734375 502.5 597.496094 502.582031 598.28125 C 502.660156 599.070312 502.703125 599.863281 502.703125 600.664062 Z M 502.703125 600.664062 " fill-opacity="1" fill-rule="evenodd"/><path fill="#000000" d="M 445.320312 796.230469 C 400.304688 819.851562 351 823.125 306.722656 796.289062 L 304.65625 799.703125 C 350.183594 827.292969 401.222656 823.871094 447.167969 799.761719 Z M 445.320312 796.230469 " fill-opacity="1" fill-rule="nonzero"/><path fill="#f3b493" d="M 264.671875 711.082031 C 264.671875 711.816406 264.59375 712.542969 264.445312 713.273438 C 264.292969 714 264.066406 714.726562 263.765625 715.441406 C 263.464844 716.160156 263.089844 716.871094 262.640625 717.570312 C 262.191406 718.269531 261.671875 718.960938 261.082031 719.636719 C 260.492188 720.3125 259.832031 720.972656 259.105469 721.617188 C 258.378906 722.261719 257.585938 722.890625 256.726562 723.5 C 255.871094 724.109375 254.953125 724.695312 253.972656 725.261719 C 252.992188 725.828125 251.957031 726.367188 250.867188 726.886719 C 249.777344 727.402344 248.632812 727.894531 247.441406 728.359375 C 246.246094 728.824219 245.007812 729.257812 243.726562 729.664062 C 242.441406 730.070312 241.121094 730.449219 239.757812 730.792969 C 238.398438 731.136719 237.003906 731.449219 235.578125 731.730469 C 234.152344 732.011719 232.699219 732.257812 231.222656 732.46875 C 229.746094 732.683594 228.25 732.859375 226.738281 733.003906 C 225.222656 733.144531 223.699219 733.253906 222.164062 733.324219 C 220.625 733.394531 219.085938 733.433594 217.542969 733.433594 C 216 733.433594 214.460938 733.394531 212.925781 733.324219 C 211.386719 733.253906 209.863281 733.144531 208.347656 733.003906 C 206.835938 732.859375 205.339844 732.683594 203.863281 732.46875 C 202.386719 732.257812 200.933594 732.011719 199.507812 731.730469 C 198.082031 731.449219 196.6875 731.136719 195.328125 730.792969 C 193.964844 730.449219 192.644531 730.070312 191.359375 729.664062 C 190.078125 729.257812 188.839844 728.824219 187.644531 728.359375 C 186.453125 727.894531 185.308594 727.402344 184.21875 726.886719 C 183.128906 726.367188 182.09375 725.828125 181.113281 725.261719 C 180.132812 724.695312 179.214844 724.109375 178.359375 723.5 C 177.5 722.890625 176.707031 722.261719 175.980469 721.617188 C 175.253906 720.972656 174.59375 720.3125 174.003906 719.636719 C 173.414062 718.960938 172.894531 718.269531 172.445312 717.570312 C 171.996094 716.871094 171.621094 716.160156 171.320312 715.441406 C 171.019531 714.726562 170.792969 714 170.644531 713.273438 C 170.492188 712.542969 170.414062 711.816406 170.414062 711.082031 C 170.414062 710.351562 170.492188 709.621094 170.644531 708.890625 C 170.792969 708.164062 171.019531 707.441406 171.320312 706.722656 C 171.621094 706.003906 171.996094 705.296875 172.445312 704.59375 C 172.894531 703.894531 173.414062 703.207031 174.003906 702.53125 C 174.59375 701.855469 175.253906 701.191406 175.980469 700.546875 C 176.707031 699.902344 177.5 699.273438 178.359375 698.667969 C 179.214844 698.058594 180.132812 697.46875 181.113281 696.90625 C 182.09375 696.339844 183.128906 695.796875 184.21875 695.28125 C 185.3125 694.761719 186.453125 694.269531 187.644531 693.808594 C 188.839844 693.34375 190.078125 692.90625 191.359375 692.5 C 192.644531 692.09375 193.964844 691.71875 195.328125 691.371094 C 196.6875 691.027344 198.082031 690.714844 199.507812 690.433594 C 200.933594 690.15625 202.386719 689.910156 203.863281 689.695312 C 205.339844 689.484375 206.835938 689.304688 208.347656 689.164062 C 209.863281 689.019531 211.386719 688.914062 212.925781 688.839844 C 214.460938 688.769531 216 688.734375 217.542969 688.734375 C 219.085938 688.734375 220.625 688.769531 222.164062 688.839844 C 223.699219 688.914062 225.222656 689.019531 226.738281 689.164062 C 228.25 689.304688 229.746094 689.484375 231.222656 689.695312 C 232.699219 689.910156 234.152344 690.15625 235.578125 690.433594 C 237.003906 690.714844 238.398438 691.027344 239.757812 691.371094 C 241.121094 691.71875 242.441406 692.09375 243.726562 692.5 C 245.007812 692.90625 246.246094 693.34375 247.441406 693.808594 C 248.632812 694.269531 249.777344 694.761719 250.867188 695.28125 C 251.957031 695.796875 252.992188 696.339844 253.972656 696.90625 C 254.953125 697.46875 255.871094 698.058594 256.726562 698.667969 C 257.585938 699.273438 258.378906 699.902344 259.105469 700.546875 C 259.832031 701.191406 260.492188 701.855469 261.082031 702.53125 C 261.671875 703.207031 262.191406 703.894531 262.640625 704.59375 C 263.089844 705.296875 263.464844 706.003906 263.765625 706.722656 C 264.066406 707.441406 264.292969 708.164062 264.445312 708.890625 C 264.59375 709.621094 264.671875 710.351562 264.671875 711.082031 Z M 264.671875 711.082031 " fill-opacity="1" fill-rule="evenodd"/><path fill="#f3b493" d="M 581.410156 711.082031 C 581.410156 711.816406 581.335938 712.542969 581.183594 713.273438 C 581.03125 714 580.804688 714.726562 580.503906 715.441406 C 580.203125 716.160156 579.828125 716.871094 579.382812 717.570312 C 578.933594 718.269531 578.414062 718.960938 577.824219 719.636719 C 577.234375 720.3125 576.574219 720.972656 575.847656 721.617188 C 575.117188 722.261719 574.324219 722.890625 573.46875 723.5 C 572.609375 724.109375 571.691406 724.695312 570.714844 725.261719 C 569.734375 725.828125 568.699219 726.367188 567.609375 726.886719 C 566.515625 727.402344 565.375 727.894531 564.179688 728.359375 C 562.988281 728.824219 561.75 729.257812 560.464844 729.664062 C 559.183594 730.070312 557.859375 730.449219 556.5 730.792969 C 555.136719 731.136719 553.742188 731.449219 552.316406 731.730469 C 550.890625 732.011719 549.441406 732.257812 547.964844 732.46875 C 546.488281 732.683594 544.992188 732.859375 543.476562 733.003906 C 541.964844 733.144531 540.4375 733.253906 538.902344 733.324219 C 537.367188 733.394531 535.828125 733.433594 534.285156 733.433594 C 532.738281 733.433594 531.199219 733.394531 529.664062 733.324219 C 528.128906 733.253906 526.601562 733.144531 525.089844 733.003906 C 523.574219 732.859375 522.078125 732.683594 520.601562 732.46875 C 519.125 732.257812 517.675781 732.011719 516.25 731.730469 C 514.824219 731.449219 513.429688 731.136719 512.066406 730.792969 C 510.707031 730.449219 509.382812 730.070312 508.101562 729.664062 C 506.816406 729.257812 505.578125 728.824219 504.386719 728.359375 C 503.191406 727.894531 502.050781 727.402344 500.960938 726.886719 C 499.867188 726.367188 498.832031 725.828125 497.851562 725.261719 C 496.875 724.695312 495.957031 724.109375 495.097656 723.5 C 494.242188 722.890625 493.449219 722.261719 492.71875 721.617188 C 491.992188 720.972656 491.332031 720.3125 490.742188 719.636719 C 490.152344 718.960938 489.632812 718.269531 489.183594 717.570312 C 488.738281 716.871094 488.363281 716.160156 488.0625 715.441406 C 487.761719 714.726562 487.535156 714 487.382812 713.273438 C 487.230469 712.542969 487.15625 711.816406 487.15625 711.082031 C 487.15625 710.351562 487.230469 709.621094 487.382812 708.890625 C 487.535156 708.164062 487.761719 707.441406 488.0625 706.722656 C 488.363281 706.003906 488.738281 705.296875 489.183594 704.59375 C 489.632812 703.894531 490.152344 703.207031 490.742188 702.53125 C 491.335938 701.855469 491.992188 701.191406 492.722656 700.546875 C 493.449219 699.902344 494.242188 699.273438 495.097656 698.667969 C 495.957031 698.058594 496.875 697.46875 497.851562 696.90625 C 498.832031 696.339844 499.867188 695.796875 500.960938 695.28125 C 502.050781 694.761719 503.191406 694.269531 504.386719 693.808594 C 505.578125 693.34375 506.816406 692.90625 508.101562 692.5 C 509.382812 692.09375 510.707031 691.71875 512.066406 691.371094 C 513.429688 691.027344 514.824219 690.714844 516.25 690.433594 C 517.675781 690.15625 519.125 689.910156 520.601562 689.695312 C 522.082031 689.484375 523.574219 689.304688 525.089844 689.164062 C 526.601562 689.019531 528.128906 688.914062 529.664062 688.839844 C 531.199219 688.769531 532.738281 688.734375 534.285156 688.734375 C 535.828125 688.734375 537.367188 688.769531 538.902344 688.839844 C 540.4375 688.914062 541.964844 689.019531 543.476562 689.164062 C 544.992188 689.304688 546.488281 689.484375 547.964844 689.695312 C 549.441406 689.910156 550.890625 690.15625 552.316406 690.433594 C 553.742188 690.714844 555.136719 691.027344 556.5 691.371094 C 557.859375 691.71875 559.183594 692.09375 560.464844 692.5 C 561.75 692.90625 562.988281 693.34375 564.179688 693.808594 C 565.375 694.269531 566.515625 694.761719 567.605469 695.28125 C 568.699219 695.796875 569.734375 696.339844 570.714844 696.90625 C 571.691406 697.46875 572.609375 698.058594 573.46875 698.667969 C 574.324219 699.273438 575.117188 699.902344 575.847656 700.546875 C 576.574219 701.191406 577.234375 701.855469 577.824219 702.53125 C 578.414062 703.207031 578.933594 703.894531 579.382812 704.59375 C 579.828125 705.296875 580.203125 706.003906 580.503906 706.722656 C 580.804688 707.441406 581.03125 708.164062 581.183594 708.890625 C 581.335938 709.621094 581.410156 710.351562 581.410156 711.082031 Z M 581.410156 711.082031 " fill-opacity="1" fill-rule="evenodd"/><path fill="#f3b493" d="M 95.019531 602.375 C 82.136719 616.886719 78.824219 628.660156 80.859375 638.738281 C 82.894531 648.820312 89.9375 656.820312 96.652344 664.601562 L 99.667969 661.992188 C 92.949219 654.207031 86.519531 646.652344 84.761719 637.953125 C 83.003906 629.25 85.585938 619.003906 97.996094 605.023438 Z M 95.019531 602.375 " fill-opacity="1" fill-rule="nonzero"/><g clip-path="url(#d975421648)"><path fill="#f2f2f2" d="M 453.683594 340.480469 C 352.144531 453.023438 242.800781 517.0625 108.082031 567.28125 C 108.082031 567.28125 89.890625 494.4375 122.964844 413.320312 C 192.265625 236.734375 384.332031 203.65625 531.402344 279.226562 C 617.386719 327.234375 668.648438 431.53125 668.648438 481.195312 C 668.648438 530.859375 647.152344 565.625 647.152344 565.625 C 558.507812 514.625 520.519531 439.308594 453.683594 340.480469 Z M 453.683594 340.480469 " fill-opacity="1" fill-rule="nonzero"/></g><path fill="#f3b493" d="M 300.410156 725.953125 C 292.480469 720.085938 233.191406 787.328125 242.023438 818.070312 L 245.757812 831.070312 C 248.816406 774.507812 301.082031 726.195312 303.320312 728.6875 Z M 300.410156 725.953125 " fill-opacity="1" fill-rule="nonzero"/><path fill="#f3b493" d="M 376.039062 465.558594 C 344.628906 464.683594 313.171875 469.277344 281.71875 481.992188 L 283.210938 485.691406 C 345.027344 460.699219 406.839844 467.570312 468.988281 485.757812 L 470.105469 481.929688 C 438.820312 472.773438 407.453125 466.429688 376.039062 465.558594 Z M 376.039062 465.558594 " fill-opacity="1" fill-rule="nonzero"/><path fill="#f3b493" d="M 376.035156 439.117188 C 347.367188 438.238281 318.65625 442.859375 289.953125 455.65625 L 291.503906 459.140625 C 347.804688 434.039062 404.066406 440.9375 460.703125 459.214844 L 461.871094 455.582031 C 433.335938 446.375 404.707031 439.992188 376.035156 439.117188 Z M 376.035156 439.117188 " fill-opacity="1" fill-rule="nonzero"/><g clip-path="url(#11c5949ffc)"><path fill="#e6e6e6" d="M 453.675781 340.484375 C 520.515625 439.3125 558.507812 514.625 647.152344 565.625 C 647.152344 565.625 653.460938 555.339844 659.25 538.0625 C 570.613281 487.058594 492.402344 389.644531 453.675781 340.484375 Z M 453.675781 340.484375 C 388.519531 390.121094 239.695312 498.519531 104.980469 548.738281 C 106.394531 560.445312 108.074219 567.285156 108.074219 567.285156 C 242.796875 517.066406 352.140625 453.03125 453.675781 340.484375 Z M 122.957031 413.324219 C 100.023438 469.582031 101.75 521.800781 104.957031 548.558594 C 104.890625 547.519531 100.140625 469.296875 122.957031 413.324219 Z M 668.585938 485.535156 C 668.570312 486.15625 668.542969 486.769531 668.523438 487.386719 C 668.546875 486.769531 668.570312 486.15625 668.585938 485.535156 Z M 668.421875 489.949219 C 668.390625 490.578125 668.34375 491.195312 668.304688 491.820312 C 668.34375 491.195312 668.390625 490.578125 668.421875 489.949219 Z M 668.140625 494.296875 C 668.109375 494.746094 668.070312 495.191406 668.035156 495.636719 C 668.070312 495.191406 668.109375 494.746094 668.140625 494.296875 Z M 667.800781 498.191406 C 667.582031 500.402344 667.332031 502.566406 667.046875 504.695312 C 667.332031 502.566406 667.582031 500.402344 667.800781 498.191406 Z M 666.875 505.917969 C 666.570312 508.058594 666.238281 510.164062 665.871094 512.21875 C 666.238281 510.164062 666.570312 508.058594 666.875 505.917969 Z M 665.636719 513.441406 C 665.398438 514.730469 665.136719 515.972656 664.875 517.226562 C 665.136719 515.972656 665.398438 514.734375 665.636719 513.441406 Z M 663.964844 521.386719 C 663.730469 522.390625 663.492188 523.382812 663.25 524.359375 C 663.492188 523.378906 663.730469 522.394531 663.964844 521.386719 Z M 662.191406 528.402344 C 661.964844 529.21875 661.742188 530.03125 661.515625 530.824219 C 661.742188 530.03125 661.964844 529.222656 662.191406 528.402344 Z M 660.378906 534.59375 C 660.113281 535.441406 659.84375 536.292969 659.578125 537.109375 C 659.847656 536.289062 660.113281 535.445312 660.378906 534.59375 Z M 660.378906 534.59375 " fill-opacity="1" fill-rule="nonzero"/></g><path fill="#f3b493" d="M 449.910156 723.46875 C 457.839844 717.601562 517.128906 784.84375 508.300781 815.589844 L 504.566406 828.589844 C 501.507812 772.023438 449.238281 723.714844 447 726.203125 Z M 449.910156 723.46875 " fill-opacity="1" fill-rule="nonzero"/><path fill="#3f434c" d="M 146.066406 312.480469 C 146.066406 312.480469 0.976562 343.132812 74.042969 402.53125 C 147.109375 461.9375 490.476562 448.632812 506.539062 418.8125 C 535.347656 365.316406 146.066406 312.480469 146.066406 312.480469 " fill-opacity="1" fill-rule="nonzero"/><g clip-path="url(#2df377fc55)"><path fill="#ffffff" d="M 666.894531 466.066406 L 143.207031 311.484375 L 166.9375 231.464844 L 690.621094 386.046875 L 666.894531 466.066406 " fill-opacity="1" fill-rule="nonzero"/></g><path fill="#3f434c" d="M 186.160156 324.289062 L 146.066406 312.480469 L 157.902344 272.472656 L 198 284.289062 L 186.160156 324.289062 " fill-opacity="1" fill-rule="nonzero"/><path fill="#3f434c" d="M 238.089844 296.097656 L 198 284.289062 L 209.835938 244.285156 L 249.933594 256.09375 L 238.089844 296.097656 " fill-opacity="1" fill-rule="nonzero"/><path fill="#3f434c" d="M 266.347656 347.914062 L 226.253906 336.101562 L 238.089844 296.097656 L 278.1875 307.910156 L 266.347656 347.914062 " fill-opacity="1" fill-rule="nonzero"/><path fill="#3f434c" d="M 318.28125 319.722656 L 278.1875 307.910156 L 290.023438 267.910156 L 330.121094 279.71875 L 318.28125 319.722656 " fill-opacity="1" fill-rule="nonzero"/><path fill="#3f434c" d="M 346.539062 371.539062 L 306.441406 359.726562 L 318.28125 319.722656 L 358.375 331.535156 L 346.539062 371.539062 " fill-opacity="1" fill-rule="nonzero"/><path fill="#3f434c" d="M 398.46875 343.34375 L 358.375 331.535156 L 370.214844 291.53125 L 410.308594 303.34375 L 398.46875 343.34375 " fill-opacity="1" fill-rule="nonzero"/><path fill="#3f434c" d="M 426.722656 395.160156 L 386.632812 383.347656 L 398.46875 343.34375 L 438.566406 355.160156 L 426.722656 395.160156 " fill-opacity="1" fill-rule="nonzero"/><path fill="#3f434c" d="M 478.28125 367 L 438.1875 355.183594 L 450.027344 315.183594 L 490.121094 326.992188 L 478.28125 367 " fill-opacity="1" fill-rule="nonzero"/><path fill="#3f434c" d="M 506.539062 418.8125 L 466.441406 407 L 478.28125 367 L 518.375 378.808594 L 506.539062 418.8125 " fill-opacity="1" fill-rule="nonzero"/><path fill="#3f434c" d="M 558.472656 390.621094 L 518.375 378.808594 L 530.214844 338.808594 L 570.308594 350.617188 L 558.472656 390.621094 " fill-opacity="1" fill-rule="nonzero"/><path fill="#3f434c" d="M 586.726562 442.4375 L 546.628906 430.625 L 558.472656 390.621094 L 598.5625 402.433594 L 586.726562 442.4375 " fill-opacity="1" fill-rule="nonzero"/><path fill="#3f434c" d="M 638.660156 414.242188 L 598.5625 402.433594 L 610.402344 362.429688 L 650.496094 374.242188 L 638.660156 414.242188 " fill-opacity="1" fill-rule="nonzero"/><g clip-path="url(#2f21963be6)"><path fill="#3f434c" d="M 666.914062 466.058594 L 626.820312 454.25 L 638.660156 414.242188 L 678.753906 426.058594 L 666.914062 466.058594 " fill-opacity="1" fill-rule="nonzero"/></g><path fill="#e8b454" d="M 165.285156 234.757812 C 165.285156 234.757812 121.695312 93.726562 140.828125 74.722656 C 159.957031 55.722656 331.691406 0.300781 427.242188 37.273438 C 522.796875 74.242188 786.140625 279.761719 797.710938 312.738281 C 809.28125 345.710938 690.285156 388.355469 690.285156 388.355469 L 165.285156 234.757812 " fill-opacity="1" fill-rule="nonzero"/><path fill="#3f434c" d="M 309.953125 291.792969 C 306.691406 291.792969 303.96875 289.242188 303.804688 285.957031 C 303.679688 283.566406 301.015625 226.757812 317.457031 174.796875 C 346.578125 82.777344 388.535156 37.710938 390.304688 35.839844 C 392.640625 33.367188 396.539062 33.257812 399.015625 35.585938 C 401.488281 37.914062 401.605469 41.800781 399.273438 44.273438 C 398.859375 44.714844 357.410156 89.398438 329.210938 178.5 C 313.453125 228.296875 316.082031 284.769531 316.113281 285.335938 C 316.28125 288.726562 313.667969 291.617188 310.265625 291.785156 C 310.164062 291.789062 310.058594 291.792969 309.953125 291.792969 " fill-opacity="1" fill-rule="nonzero"/><path fill="#3f434c" d="M 544.339844 370.863281 C 543.207031 370.863281 542.0625 370.550781 541.035156 369.902344 C 538.164062 368.078125 537.316406 364.28125 539.144531 361.417969 C 587.105469 286.152344 613.703125 168.453125 613.96875 167.273438 C 614.707031 163.957031 617.996094 161.871094 621.320312 162.605469 C 624.644531 163.34375 626.738281 166.625 625.996094 169.945312 C 624.90625 174.847656 598.65625 290.945312 549.542969 368.011719 C 548.371094 369.855469 546.375 370.863281 544.339844 370.863281 " fill-opacity="1" fill-rule="nonzero"/><path fill="#3f434c" d="M 627.144531 394.460938 C 625.089844 394.460938 623.085938 393.4375 621.914062 391.574219 C 620.109375 388.695312 620.984375 384.902344 623.867188 383.097656 C 624.34375 382.800781 672.003906 352.960938 697.5625 331.949219 C 726.398438 308.234375 749.328125 278.535156 749.554688 278.238281 C 751.625 275.542969 755.492188 275.03125 758.195312 277.09375 C 760.898438 279.160156 761.410156 283.023438 759.339844 285.714844 C 758.375 286.972656 735.308594 316.839844 705.398438 341.433594 C 679.21875 362.960938 632.390625 392.28125 630.410156 393.523438 C 629.390625 394.15625 628.261719 394.460938 627.144531 394.460938 " fill-opacity="1" fill-rule="nonzero"/></g></g></svg>